<svg viewBox="0 0 640 480" xmlns="http://www.w3.org/2000/svg" xml:space="preserve" style="fill-rule:evenodd;clip-rule:evenodd;stroke-linejoin:round;stroke-miterlimit:2"><path d="M640 72c0-39.738-32.262-72-72-72H72C32.262 0 0 32.262 0 72v336c0 39.738 32.262 72 72 72h496c39.738 0 72-32.262 72-72V72Z" style="fill:#039"/><path d="M325.987 71.76h19.375l-15.675 11.388 5.987 18.426L320 90.186l-15.674 11.388 5.987-18.426-15.675-11.388h19.375L320 53.333l5.987 18.427Zm0 320h19.375l-15.675 11.388 5.987 18.426L320 410.186l-15.674 11.388 5.987-18.426-15.675-11.388h19.375L320 373.333l5.987 18.427Zm138.339-130.186 5.987-18.426-15.675-11.388h19.375L480 213.333l5.987 18.427h19.375l-15.675 11.388 5.987 18.426L480 250.186l-15.674 11.388ZM405.987 93.195h19.375l-15.675 11.389 5.987 18.426L400 111.622l-15.674 11.388 5.987-18.426-15.675-11.389h19.375L400 74.769l5.987 18.426Zm36.903 88.379 5.987-18.426-15.674-11.388h19.374l5.987-18.427 5.987 18.427h19.375l-15.675 11.388 5.987 18.426-15.674-11.388-15.674 11.388Zm21.661 130.186h19.375l-15.675 11.388 5.987 18.426-15.674-11.388-15.674 11.388 5.987-18.426-15.674-11.388h19.374l5.987-18.427 5.987 18.427Zm-80.225 88.378 5.987-18.426-15.675-11.388h19.375L400 351.897l5.987 18.427h19.375l-15.675 11.388 5.987 18.426L400 388.75l-15.674 11.388ZM165.987 231.76h19.375l-15.675 11.388 5.987 18.426L160 250.186l-15.674 11.388 5.987-18.426-15.675-11.388h19.375L160 213.333l5.987 18.427Zm58.339-108.75 5.987-18.426-15.675-11.389h19.375L240 74.769l5.987 18.426h19.375l-15.675 11.389 5.987 18.426L240 111.622l-15.674 11.388Zm-36.903 28.75h19.374l-15.674 11.388 5.987 18.426-15.674-11.388-15.674 11.388 5.987-18.426-15.675-11.388 19.888 3.304-.513-3.304 5.987-18.427 5.987 18.427Zm-21.661 189.814 5.987-18.426-15.675-11.388h19.375l5.987-18.427 5.987 18.427h19.374l-15.674 11.388 5.987 18.426-15.674-11.388-15.674 11.388Zm58.564 58.564 5.987-18.426-15.675-11.388h19.375L240 351.897l5.987 18.427h19.375l-15.675 11.388 5.987 18.426L240 388.75l-15.674 11.388Z" style="fill:#fc0;fill-rule:nonzero"/></svg>