<svg version="1.1" id="CM" xmlns="http://www.w3.org/2000/svg" x="0" y="0" viewBox="0 0 4000 2000" xml:space="preserve"><style>.st1{fill:#7aa7f0}.st2{fill:#265299}.st3{fill:#bcd3f7}</style><pattern width="400" height="600" patternUnits="userSpaceOnUse" id="cm_pattern" viewBox="75 -675 400 600" overflow="visible"><path fill="none" d="M75-675h400v600H75z"/><g id="XMLID_79_"><path id="XMLID_83_" class="st1" d="M546.1-75.2c-.1 10.7-9.4 20.6-20.1 21.4 7.3 7.8 7.1 21.2-.4 28.8-7.6 7.7-21.4 8.2-29.6 1.1-.7 10.8-10.8 20.2-21.6 20.1-10.7-.1-20.3-9.5-20.6-20.2-8.1 7.1-21.7 6.7-29.3-.8-7.7-7.5-8-21-.6-28.9-10.8-.4-20.2-10.2-20.1-21 .1-10.7 9.4-20.6 20.1-21.4-7.3-7.8-7.1-21.2.4-28.8 7.6-7.7 21.4-8.2 29.6-1.1.7-10.7 10.6-20.1 21.4-20.2 10.8-.1 20.6 9.3 21 20.1 8.2-7.1 21.9-6.6 29.5 1.1 7.5 7.6 7.7 21 .4 28.8 10.7.4 20 10.2 19.9 21 0 5.6.1-5.5 0 0z"/><path id="XMLID_80_" class="st2" d="M498.7-17.6c9.6 4.7 22.1 3.1 29.7-4.7 7.5-7.6 8.9-19.7 4.1-29 9.1-3.2 16.2-11.7 17.3-21.3.1-.3.1-.6.1-.9v-.3-2.5-.1-.3c0-.4-.1-.7-.1-1-.6-5.3-3-10.5-6.9-14.5-2.9-3.1-6.5-5.3-10.4-6.6 4.7-9.2 3.3-21.3-4.2-28.8-7.6-7.7-19.9-9.4-29.5-4.8-1.3-3.9-3.5-7.6-6.6-10.6-4.7-4.5-10.9-7.1-17.1-7-10.7.1-20.5 7.7-23.9 17.7-9.6-4.7-22.1-3-29.7 4.7-7.5 7.6-8.9 19.7-4.1 29-9.8 3.5-17.4 13.3-17.5 23.8-.1 6.1 2.5 12.4 7 17.1 2.9 3.1 6.5 5.3 10.4 6.6-1.8 3.6-2.8 7.8-2.7 12 .1 6.5 2.7 12.7 7.1 17 7.6 7.4 19.8 9 29.2 4.5 1.2 3.9 3.4 7.5 6.5 10.4C462-2.7 468.2 0 474.3 0h.2c10.9 0 20.7-7.6 24.2-17.6zm-47.4-9.3c-6.6 5.8-17.9 5.5-24.1-.7-6.3-6.2-6.5-17.2-.5-23.6l5.8-6.2-8.5-.3c-8.8-.3-16.4-8.3-16.4-17.1.1-8.7 7.8-16.9 16.5-17.6l8-.6-5.5-5.9c-5.9-6.3-5.8-17.3.3-23.5 6.2-6.3 17.6-6.7 24.3-.9l5.8 5.1.5-7.7c.6-8.8 8.8-16.5 17.6-16.6h.1c8.8 0 16.7 7.6 16.9 16.4l.3 8.1 6.1-5.3c6.7-5.8 18.1-5.4 24.3.9 6.1 6.2 6.2 17.1.3 23.5l-5.8 6.2 8.5.3c8.7.3 16.3 8.2 16.3 16.9v.3c-.2 8.7-7.8 16.8-16.5 17.4l-8 .6 5.5 5.9c5.9 6.3 5.8 17.3-.3 23.5-6.2 6.3-17.6 6.7-24.3.9l-5.8-5.1-.5 7.7c-.6 8.8-8.9 16.5-17.7 16.5h-.1c-8.7-.1-16.5-7.7-16.8-16.4l-.2-8.2-6.1 5.5z"/></g><path id="XMLID_78_" class="st3" d="M457.8-92.2c5.1-5.1 10.9-7.7 17.5-7.7 6.6-.1 12.3 2.4 17.3 7.4s7.5 10.8 7.4 17.3c-.1 6.6-2.6 12.4-7.7 17.5S481.4-50 474.8-50c-6.6.1-12.3-2.4-17.3-7.4s-7.5-10.8-7.4-17.3c0-6.6 2.6-12.4 7.7-17.5z"/><g id="XMLID_72_"><path id="XMLID_76_" class="st1" d="M146.1-75.2c-.1 10.7-9.4 20.6-20.1 21.4 7.3 7.8 7.1 21.2-.4 28.8-7.6 7.7-21.4 8.2-29.6 1.1-.7 10.8-10.7 20.1-21.6 20.1-10.7-.1-20.3-9.5-20.5-20.2-8.1 7.1-21.7 6.7-29.3-.8-7.7-7.5-8-21-.6-28.9-10.8-.4-20.2-10.2-20.1-21C4-85.4 13.3-95.3 24-96.1c-7.3-7.8-7.1-21.2.4-28.8 7.6-7.7 21.4-8.2 29.6-1.1.7-10.7 10.6-20.1 21.4-20.2 10.8-.1 20.6 9.3 21 20.1 8.2-7.1 21.9-6.6 29.5 1.1 7.5 7.6 7.7 21 .4 28.8 10.6.4 19.9 10.2 19.8 21 0 5.6.1-5.5 0 0z"/><path id="XMLID_73_" class="st2" d="M98.7-17.6c9.6 4.7 22.1 3.1 29.7-4.7 7.5-7.6 8.9-19.7 4.1-29 9.1-3.2 16.2-11.7 17.3-21.3.1-.3.1-.6.1-.9v-.3-2.5-.1-.3c0-.4-.1-.7-.1-1-.6-5.3-3-10.5-6.9-14.5-2.9-3.1-6.5-5.3-10.4-6.6 4.7-9.2 3.3-21.3-4.2-28.8-7.6-7.7-19.9-9.4-29.5-4.8-1.3-3.9-3.5-7.6-6.6-10.6-4.7-4.5-10.9-7.1-17.1-7-10.7.1-20.5 7.7-23.9 17.7-9.6-4.7-22.1-3-29.7 4.7-7.5 7.6-8.9 19.7-4.1 29C7.6-95.1.1-85.3 0-74.8c-.1 6.1 2.5 12.4 7 17.1 2.9 3.1 6.5 5.3 10.4 6.6-1.8 3.6-2.8 7.8-2.7 12 .1 6.5 2.7 12.7 7.1 17 7.6 7.4 19.8 9 29.2 4.5 1.2 3.9 3.4 7.5 6.5 10.4C62.2-2.7 68.3 0 74.4 0h.2c10.8 0 20.6-7.6 24.1-17.6zm-47.4-9.3c-6.6 5.8-17.9 5.5-24.1-.7-6.3-6.2-6.5-17.2-.5-23.6l5.8-6.2-8.5-.2c-8.8-.3-16.4-8.3-16.4-17.1.1-8.7 7.8-16.9 16.5-17.6l8-.6-5.5-5.9c-5.9-6.3-5.8-17.3.3-23.5 6.2-6.3 17.6-6.7 24.3-.9l5.8 5.1.5-7.7c.6-8.8 8.8-16.5 17.6-16.6h.1c8.8 0 16.7 7.6 16.9 16.4l.3 8.1 6.1-5.3c6.7-5.8 18.1-5.4 24.3.9 6.1 6.2 6.2 17.1.3 23.5l-5.8 6.2 8.5.3c8.7.3 16.3 8.2 16.3 16.9v.3c-.2 8.7-7.8 16.8-16.5 17.4l-8 .6 5.5 5.9c5.9 6.3 5.8 17.3-.3 23.5-6.2 6.3-17.6 6.7-24.3.9l-5.8-5.1-.5 7.7c-.6 8.8-8.9 16.5-17.7 16.5h-.1c-8.7-.1-16.5-7.7-16.8-16.4l-.2-8.2-6.1 5.4z"/></g><path id="XMLID_71_" class="st3" d="M57.8-92.2c5.1-5.1 10.9-7.7 17.5-7.7 6.6-.1 12.3 2.4 17.3 7.4s7.5 10.8 7.4 17.3c-.1 6.6-2.6 12.4-7.7 17.5S81.4-50 74.8-50c-6.6.1-12.3-2.4-17.3-7.4S50-68.2 50.1-74.7c0-6.6 2.6-12.4 7.7-17.5z"/><g id="XMLID_65_"><path id="XMLID_69_" class="st1" d="M346.1-375.2c-.1 10.7-9.4 20.6-20.1 21.4 7.3 7.8 7.1 21.2-.4 28.8-7.6 7.7-21.4 8.2-29.6 1.1-.7 10.8-10.8 20.2-21.6 20.1-10.7-.1-20.3-9.5-20.6-20.2-8.1 7.1-21.7 6.7-29.3-.8-7.7-7.5-8-21-.6-28.9-10.8-.4-20.2-10.2-20.1-21 .1-10.7 9.4-20.6 20.1-21.4-7.3-7.8-7.1-21.2.4-28.8 7.6-7.7 21.4-8.2 29.6-1.1.7-10.7 10.6-20.1 21.4-20.2 10.8-.1 20.6 9.3 21 20.1 8.2-7.1 21.9-6.6 29.5 1.1 7.5 7.6 7.7 21 .4 28.8 10.7.4 20 10.2 19.9 21 0 5.6.1-5.5 0 0z"/><path id="XMLID_66_" class="st2" d="M298.7-317.6c9.6 4.7 22.1 3.1 29.7-4.7 7.5-7.6 8.9-19.7 4.1-29 9.1-3.2 16.2-11.7 17.3-21.3.1-.3.1-.6.1-.9v-.3-2.5-.1-.3c0-.4-.1-.7-.1-1-.6-5.3-3-10.5-6.9-14.5-2.9-3.1-6.5-5.3-10.4-6.6 4.7-9.2 3.3-21.3-4.2-28.8-7.6-7.7-19.9-9.4-29.5-4.8-1.3-3.9-3.5-7.6-6.6-10.6-4.7-4.5-10.9-7.1-17.1-7-10.7.1-20.5 7.7-23.9 17.7-9.6-4.7-22.1-3-29.7 4.7-7.5 7.6-8.9 19.7-4.1 29-9.8 3.5-17.4 13.3-17.5 23.8-.1 6.1 2.5 12.4 7 17.1 2.9 3.1 6.5 5.3 10.4 6.6-1.8 3.6-2.8 7.8-2.7 12 .1 6.5 2.7 12.7 7.1 17 7.6 7.4 19.8 9 29.2 4.5 1.2 3.9 3.4 7.5 6.5 10.4 4.6 4.5 10.8 7.2 16.9 7.2h.2c10.9 0 20.7-7.6 24.2-17.6zm-47.4-9.3c-6.6 5.8-17.9 5.5-24.1-.7-6.3-6.2-6.5-17.2-.5-23.6l5.8-6.2-8.5-.3c-8.8-.3-16.4-8.3-16.4-17.1.1-8.7 7.8-16.9 16.5-17.6l8-.6-5.5-5.9c-5.9-6.3-5.8-17.3.3-23.5 6.2-6.3 17.6-6.7 24.3-.9l5.8 5.1.5-7.7c.6-8.8 8.8-16.5 17.6-16.6h.1c8.8 0 16.7 7.6 16.9 16.4l.3 8.1 6.1-5.3c6.7-5.8 18.1-5.4 24.3.9 6.1 6.2 6.2 17.1.3 23.5l-5.8 6.2 8.5.3c8.7.3 16.3 8.2 16.3 16.9v.3c-.2 8.7-7.8 16.8-16.5 17.4l-8 .6 5.5 5.9c5.9 6.3 5.8 17.3-.3 23.5-6.2 6.3-17.6 6.7-24.3.9l-5.8-5.1-.5 7.7c-.6 8.8-8.9 16.5-17.7 16.5h-.1c-8.7-.1-16.5-7.7-16.8-16.4l-.2-8.2-6.1 5.5z"/></g><path id="XMLID_64_" class="st3" d="M257.8-392.2c5.1-5.1 10.9-7.7 17.5-7.7 6.6-.1 12.3 2.4 17.3 7.4s7.5 10.8 7.4 17.3c-.1 6.6-2.6 12.4-7.7 17.5s-10.9 7.7-17.5 7.7c-6.6.1-12.3-2.4-17.3-7.4s-7.5-10.8-7.4-17.3c0-6.6 2.6-12.4 7.7-17.5z"/><g><g id="XMLID_58_"><path id="XMLID_62_" class="st1" d="M546.1-675.2c-.1 10.7-9.4 20.6-20.1 21.4 7.3 7.8 7.1 21.2-.4 28.8-7.6 7.7-21.4 8.2-29.6 1.1-.7 10.8-10.8 20.2-21.6 20.1-10.7-.1-20.3-9.5-20.6-20.2-8.1 7.1-21.7 6.7-29.3-.8-7.7-7.5-8-21-.6-28.9-10.8-.4-20.2-10.2-20.1-21 .1-10.7 9.4-20.6 20.1-21.4-7.3-7.8-7.1-21.2.4-28.8 7.6-7.7 21.4-8.2 29.6-1.1.7-10.7 10.6-20.1 21.4-20.2 10.8-.1 20.6 9.3 21 20.1 8.2-7.1 21.9-6.6 29.5 1.1 7.5 7.6 7.7 21 .4 28.8 10.7.4 20 10.2 19.9 21 0 5.6.1-5.5 0 0z"/><path id="XMLID_59_" class="st2" d="M498.7-617.6c9.6 4.7 22.1 3.1 29.7-4.7 7.5-7.6 8.9-19.7 4.1-29 9.1-3.2 16.2-11.7 17.3-21.3.1-.3.1-.6.1-.9v-.3-2.5-.1-.3c0-.4-.1-.7-.1-1-.6-5.3-3-10.5-6.9-14.5-2.9-3.1-6.5-5.3-10.4-6.6 4.7-9.2 3.3-21.3-4.2-28.8-7.6-7.7-19.9-9.4-29.5-4.8-1.3-3.9-3.5-7.6-6.6-10.6-4.7-4.5-10.9-7.1-17.1-7-10.7.1-20.5 7.7-23.9 17.7-9.6-4.7-22.1-3-29.7 4.7-7.5 7.6-8.9 19.7-4.1 29-9.8 3.5-17.4 13.3-17.5 23.8-.1 6.1 2.5 12.4 7 17.1 2.9 3.1 6.5 5.3 10.4 6.6-1.8 3.6-2.8 7.8-2.7 12 .1 6.5 2.7 12.7 7.1 17 7.6 7.4 19.8 9 29.2 4.5 1.2 3.9 3.4 7.5 6.5 10.4 4.6 4.5 10.8 7.2 16.9 7.2h.2c10.9 0 20.7-7.6 24.2-17.6zm-47.4-9.3c-6.6 5.8-17.9 5.5-24.1-.7-6.3-6.2-6.5-17.2-.5-23.6l5.8-6.2-8.5-.3c-8.8-.3-16.4-8.3-16.4-17.1.1-8.7 7.8-16.9 16.5-17.6l8-.6-5.5-5.9c-5.9-6.3-5.8-17.3.3-23.5 6.2-6.3 17.6-6.7 24.3-.9l5.8 5.1.5-7.7c.6-8.8 8.8-16.5 17.6-16.6h.1c8.8 0 16.7 7.6 16.9 16.4l.3 8.1 6.1-5.3c6.7-5.8 18.1-5.4 24.3.9 6.1 6.2 6.2 17.1.3 23.5l-5.8 6.2 8.5.3c8.7.3 16.3 8.2 16.3 16.9v.3c-.2 8.7-7.8 16.8-16.5 17.4l-8 .6 5.5 5.9c5.9 6.3 5.8 17.3-.3 23.5-6.2 6.3-17.6 6.7-24.3.9l-5.8-5.1-.5 7.7c-.6 8.8-8.9 16.5-17.7 16.5h-.1c-8.7-.1-16.5-7.7-16.8-16.4l-.2-8.2-6.1 5.5z"/></g><path id="XMLID_57_" class="st3" d="M457.8-692.2c5.1-5.1 10.9-7.7 17.5-7.7 6.6-.1 12.3 2.4 17.3 7.4s7.5 10.8 7.4 17.3c-.1 6.6-2.6 12.4-7.7 17.5s-10.9 7.7-17.5 7.7c-6.6.1-12.3-2.4-17.3-7.4s-7.5-10.8-7.4-17.3c0-6.6 2.6-12.4 7.7-17.5z"/></g><g><g id="XMLID_23_"><path id="XMLID_27_" class="st1" d="M146.1-675.2c-.1 10.7-9.4 20.6-20.1 21.4 7.3 7.8 7.1 21.2-.4 28.8-7.6 7.7-21.4 8.2-29.6 1.1-.7 10.8-10.8 20.2-21.6 20.1-10.7-.1-20.3-9.5-20.6-20.2-8.1 7.1-21.7 6.7-29.3-.8-7.7-7.5-8-21-.6-28.9-10.8-.4-20.2-10.2-20.1-21 .1-10.7 9.4-20.6 20.1-21.4-7.3-7.8-7.1-21.2.4-28.8 7.6-7.7 21.4-8.2 29.6-1.1.7-10.7 10.6-20.1 21.4-20.2 10.8-.1 20.6 9.3 21 20.1 8.2-7.1 21.9-6.6 29.5 1.1 7.5 7.6 7.7 21 .4 28.8 10.7.4 20 10.2 19.9 21 0 5.6.1-5.5 0 0z"/><path id="XMLID_24_" class="st2" d="M98.7-617.6c9.6 4.7 22.1 3.1 29.7-4.7 7.5-7.6 8.9-19.7 4.1-29 9.1-3.2 16.2-11.7 17.3-21.3.1-.3.1-.6.1-.9v-.3-2.5-.1-.3c0-.4-.1-.7-.1-1-.6-5.3-3-10.5-6.9-14.5-2.9-3.1-6.5-5.3-10.4-6.6 4.7-9.2 3.3-21.3-4.2-28.8-7.6-7.7-19.9-9.4-29.5-4.8-1.3-3.9-3.5-7.6-6.6-10.6-4.7-4.5-10.9-7.1-17.1-7-10.7.1-20.5 7.7-23.9 17.7-9.6-4.7-22.1-3-29.7 4.7-7.5 7.6-8.9 19.7-4.1 29C7.6-695.1.1-685.3 0-674.8c-.1 6.1 2.5 12.4 7 17.1 2.9 3.1 6.5 5.3 10.4 6.6-1.8 3.6-2.8 7.8-2.7 12 .1 6.5 2.7 12.7 7.1 17 7.6 7.4 19.8 9 29.2 4.5 1.2 3.9 3.4 7.5 6.5 10.4 4.6 4.5 10.8 7.2 16.9 7.2h.2c10.8 0 20.6-7.6 24.1-17.6zm-47.4-9.3c-6.6 5.8-17.9 5.5-24.1-.7-6.3-6.2-6.5-17.2-.5-23.6l5.8-6.2-8.5-.3c-8.8-.3-16.4-8.3-16.4-17.1.1-8.7 7.8-16.9 16.5-17.6l8-.6-5.5-5.9c-5.9-6.3-5.8-17.3.3-23.5 6.2-6.3 17.6-6.7 24.3-.9l5.8 5.1.5-7.7c.6-8.8 8.8-16.5 17.6-16.6h.1c8.8 0 16.7 7.6 16.9 16.4l.3 8.1 6.1-5.3c6.7-5.8 18.1-5.4 24.3.9 6.1 6.2 6.2 17.1.3 23.5l-5.8 6.2 8.5.3c8.7.3 16.3 8.2 16.3 16.9v.3c-.2 8.7-7.8 16.8-16.5 17.4l-8 .6 5.5 5.9c5.9 6.3 5.8 17.3-.3 23.5-6.2 6.3-17.6 6.7-24.3.9l-5.8-5.1-.5 7.7c-.6 8.8-8.9 16.5-17.7 16.5h-.1c-8.7-.1-16.5-7.7-16.8-16.4l-.2-8.2-6.1 5.5z"/></g><path id="XMLID_22_" class="st3" d="M57.8-692.2c5.1-5.1 10.9-7.7 17.5-7.7 6.6-.1 12.3 2.4 17.3 7.4s7.5 10.8 7.4 17.3c-.1 6.6-2.6 12.4-7.7 17.5S81.4-650 74.8-650c-6.6.1-12.3-2.4-17.3-7.4s-7.5-10.8-7.4-17.3c0-6.6 2.6-12.4 7.7-17.5z"/></g></pattern><path opacity=".03" fill="url(#cm_pattern)" d="M3577.9 3285.9L-650.7 1815.3 420.6-1265.2 4649.2 205.3z"/></svg>
