<svg xmlns="http://www.w3.org/2000/svg" viewBox="-94 788.7 32 20">
  <style>
    .st0{fill:none;stroke:#000000;stroke-linejoin:round;} .st1{fill:#FFFFFF;} .st2{fill:#CD2A3E;} .st3{fill:#436F4D;}
  </style>
  <path d="M-62.6 793v-.1h-.2v-.1l.1-.1.1-.1v-.2h-.1v-.1h-.1v-.1h-.1v-.2l-.1.1v-.1h-.1v.1l-.1-.1h-.1v.1h-.1l-.1.1h-.4V791.9l-.1-.1v-.1h-.1v-.1h.1l-.1-.1h-.1l-.1-.1v-.1h-.1v-.1h-.1l-.1.1-.1-.1h-.1v.1h-.2v-.1l-.1-.1v-.2l-.1-.1v-.2h-.1v-.1h-.2v-.1h-.1l.1-.1v-.1h-.2v-.1h-.1v.1h-.2v.1h-.1v.1h-.5l-.1.1-.1-.1-.1.1h-.1v.1l-.1-.1-.1.1h-.2v.1h-.1v.1l-.1-.1H-67.9l-.1-.1v-.1l-.2-.1v-.2l-.1-.1-.1-.2v-.2h-.1v-.1h-.1v.1h-.1v-.1h-.1v-.1h-.1v-.1l-.1-.1-.2-.1h-.1v.2h-.1v-.1h-.1l-.2.1h-.1v.1l-.1.1h-.1l-.1-.1h-.1l-.2.1h-.1v.1h-.1v.1h-.1v-.1l-.1-.1H-71.1l-.1.1-.2-.1-.1-.1-.1-.1-.2.1v-.1l-.2-.1h-.2l-.2.1H-72.7l-.1.1h-.2l-.1.1H-73.4V789.9l-.1.1-.1.1h.1l-.1.1h-.1v.1l-.1.1V790.7l-.1.1v.1h-.1v.2l-.1.1-.1.1-.1.1h-.2l-.1-.1v.1h-.1v.1H-75v.1h-.1.1v.1h-.1l-.1.1v.1h-.1v.1h-.1v.1h-.1v-.1h-.1l-.1.1-.1.1h-.1v.1h-.2l.1-.1h-.1v-.1l-.2-.1v.1h-.1l-.1.1h-.1v-.2h.1l-.1-.1-.1-.1h-.2v.1h-.1v-.1h-.1v-.2H-77.4v.1h-.1l-.1.1h-.2v.1l-.1.1v.1l.1.1h-.1V792.5h-.1v.1h-.1v-.1h-.1l-.1.1-.1.1v-.1h-.4v.1h-.2v.1h-.4l-.1-.1H-79.8l-.1.1h-.1l-.1-.1v.1h-.1v.1l-.1-.1h-.2l-.1.1v-.1l-.1.1h-.2v.1l-.1.1v.2h-.2l-.1.1h.1v.4l-.1.1h.1v.2h.2v.2h.1l.1.1h-.4l-.1.1-.1.1h-.1l-.1.1-.2.1h-.6v.1h-.1l-.1-.1v-.1l-.1.1h-.1l-.2.1H-83.3l-.1.1-.1-.1h-.5l-.2-.1h-.4l-.1.1-.1-.1h-.1v.1H-85.2l-.1-.1h-.1v.1h-.3l-.1-.1H-86.1v-.1l-.1-.1-.1-.1h-.1v-.1l-.1-.1v.1h-.1l-.1-.1v-.1h-.1v-.1l-.1-.1h-.2v-.1h-.1v-.2h-.1l-.1-.1v-.1h-.1l-.2-.3h-.3l-.1-.1v-.1H-88.4v.1h-.1l-.3.2.1.1v.1h-.1l.1.1-.1.1v.2l-.1.1H-89.2l.1.1.1.1v.1l.1.1-.1.1v.2h.1v.2l.1.1h-.3l-.5.2h-.2v-.2l-.1-.1v.1h-.1v.1l-.1.1h-.3l-.1-.3v-.1h-.2l-.2-.1v-.1h-.2l-.1.1h-.1l-.1.1.1.1h-.1l-.1.1h-.1v.1h-.2v.1h-.1v.1h.2l.1.1h.2l.1.1.1.1h.1v-.1h.2v.1l.1.1V796h.1l.1.1-.1.1h.1-.1v.1h-.1l-.1.1.1.1-.1.1v.1h-.1v.1h-.1l-.1.1-.1.1h-.1v-.1l-.1.1v-.1l-.1.1h-.1v-.1h-.2v.1l.1.1v.2h-.1v.1h.1v.1h.1v.4l-.1.1v-.1l-.1.1v.2h-.1v.2h.1l.1.1v.1h-.1l.1.1h.1l.1-.1v.1h.1v.1h-.2v.1h-.1v.2l.1.1h.1v.1H-91.9v.1h-.1.2v.1h.1v.1l-.1.1-.1-.1-.1.1h-.1v-.1h-.2l-.1-.1v.1h-.2v-.1l-.1.1v.1l-.1.1-.1.1-.1.1h-.1l-.1.1v.1h-.1l-.1.1v.1h-.1v.1h.5v-.1h.1l.1.1h.2l.1.1.1.1-.1.1v.1h-.1V801.2l.1.1v.2h.2l-.1.1h.2l.1.1v.1l-.1.1v-.1l-.1.1v.1h.1v.1l.1.1h.1v.1l.1.1v.1h.2v.4l.1.1.1.1h.2v.1h.2v.1h.1v.1l.1.1v.1l.1.1v-.1h.1v.1h.1v.1l.1-.1.1.1h.1l.1.1.1.1v.4l.1.1h.1v.1l.2.1v.1h.2l.1.1.1.1h.1l.1.1.1.1h.2v.1h.1V805.6h.1v.1h.1v.1h-.1.1l.1.1v.1h.1v.1l.1.1h-.1v.1h.1l.1.1h-.1l.1.1.1.1v-.1h.1v.1l-.1.1.1.1.1-.1v.1H-87.5l-.1-.1h.1l.1.1h.5l.1.1.1.1.1.1v.2h.1v.1l.1.1.1-.1v.1h.2l.1.1h.1l.1.1.1-.1v.2h.1v.1h.1v-.1h.5l.1-.1.1.2h.2l.1.1h.1l.1-.1v-.1h.1l.1.1h.1v-.1l.2.1.1.1h.1v.1l.1-.1.2.1.1-.1.1-.1v.1h.1v.1l.1.1h.1v-.2h.2v-.2l.1.1h.1l.1-.1.1-.1h.1l.1-.1v-.2h.1v-.1h.1v-.2h.1l-.1-.1h.2l.1.1h.2v.1l.2.1v-.1l.1-.1v-.1l.1.1.1-.1h.1v-.1h.4l.1.1.1-.1-.1-.1.1-.1.1-.1.1.1h.1l-.1-.3.2-.2h.2v.3h.3l.1-.1.1.1h.2v-.2l.3-.2.1.1.2-.1.2-.2v-.1h.1l.1-.1.1-.1-.1-.1.1-.1v.1l.1-.1.1-.1v-.1l.2.1h.1l.1-.1H-76.8v.1h.1l.1.1v.1h.2l.1.1.1-.1v-.1H-75.9l.1-.2h.4v.1l.1.1v.1l.1-.1v.1-.1l.2-.1.1.1h.1v.1l.1-.1h.2v.1l.1.1h.2v-.1l.1-.1h.1l.1-.1h.1v.1l.1-.1.1.1H-73.3l.1-.1.1-.1h-.1l.1-.1v.1h.1l.2.1.1.1h.1v.1h.1l.1-.1h.1l.1-.1h.1V805h.2l-.1-.3.1-.1v-.1l.1.1v-.1l.4-.1v.1l.2.1v-.1h.1l.1.1H-70.7l.1.1h.1l.1-.1h.1V804.3h.2v.1l.1-.1v-.2l.1-.1V803.7l.1-.1H-69.5v-.1l.1-.1v-.2h-.1l-.1-.1v-.4h.1l.1-.2V802.2l.1-.1h.2l.1.1v-.1h.1v-.1l.1-.1-.1-.1v-.1H-68.6l.1-.1v-.1l.1-.1h-.1v-.1h-.1v-.2l.1-.2v-.2h.1l.1-.1h.2V800.3l-.1-.1.1-.1.1-.1h.1v-.1h.1v-.4h-.1v-.2h.1l.1-.1v-.1l.1-.1.1-.1h.2V798.6h.1v-.1l.1-.1h.1v-.2l-.1-.1v-.1l.1-.1.1-.1v-.1h-.1l.1-.1v-.1l.1-.1v-.1l.1-.1v-.1h.2v-.1l.1.1h.1v-.5l-.1-.1v-.4l.2-.1v.1l.1-.1-.1-.1h.1l.1-.1.1-.1v-.1h.2v-.1h.1v-.2l.1-.1v-.2l.1-.1h.1v-.2h.1v-.1h.2v-.1h.1l.1.1.1-.1v.1h.1v-.1l.1-.1v-.2h.1v-.1h.1l.3.2h.5v-.1h.1v-.1h.1v-.1l.1-.1h.1l.1-.1v-.1h-.1v-.2h.2l.1-.1h.1l.1-.2.1-.1" class="st0"/>
  <path d="M-62.6 793v-.1h-.2v-.1l.1-.1.1-.1v-.2h-.1v-.1h-.1v-.1h-.1v-.2l-.1.1v-.1h-.1v.1l-.1-.1h-.1v.1h-.1l-.1.1h-.4V791.9l-.1-.1v-.1h-.1v-.1h.1l-.1-.1h-.1l-.1-.1v-.1h-.1v-.1h-.1l-.1.1-.1-.1h-.1v.1h-.2v-.1l-.1-.1v-.2l-.1-.1v-.2h-.1v-.1h-.2v-.1h-.1l.1-.1v-.1h-.2v-.1h-.1v.1h-.2v.1h-.1v.1h-.5l-.1.1-.1-.1-.1.1h-.1v.1l-.1-.1-.1.1h-.2v.1h-.1v.1l-.1-.1H-67.9l-.1-.1v-.1l-.2-.1v-.2l-.1-.1-.1-.2v-.2h-.1v-.1h-.1v.1h-.1v-.1h-.1v-.1h-.1v-.1l-.1-.1-.2-.1h-.1v.2h-.1v-.1h-.1l-.2.1h-.1v.1l-.1.1h-.1l-.1-.1h-.1l-.2.1h-.1v.1h-.1v.1h-.1v-.1l-.1-.1H-71.1l-.1.1-.2-.1-.1-.1-.1-.1-.2.1v-.1l-.2-.1h-.2l-.2.1H-72.7l-.1.1h-.2l-.1.1H-73.4V789.9l-.1.1-.1.1h.1l-.1.1h-.1v.1l-.1.1V790.7l-.1.1v.1h-.1v.2l-.1.1-.1.1-.1.1h-.2l-.1-.1v.1h-.1v.1H-75v.1h-.1.1v.1h-.1l-.1.1v.1h-.1v.1h-.1v.1h-.1v-.1h-.1l-.1.1-.1.1h-.1v.1h-.2l.1-.1h-.1v-.1l-.2-.1v.1h-.1l-.1.1h-.1v-.2h.1l-.1-.1-.1-.1h-.2v.1h-.1v-.1h-.1v-.2H-77.4v.1h-.1l-.1.1h-.2v.1l-.1.1v.1l.1.1h-.1V792.5h-.1v.1h-.1v-.1h-.1l-.1.1-.1.1v-.1h-.4v.1h-.2v.1h-.4l-.1-.1H-79.8l-.1.1h-.1l-.1-.1v.1h-.1v.1l-.1-.1h-.2l-.1.1v-.1l-.1.1h-.2v.1l-.1.1v.2h-.2l-.1.1h.1v.4l-.1.1h.1v.2h.2v.2h.1l.1.1h-.4l-.1.1-.1.1h-.1l-.1.1-.2.1h-.6v.1h-.1l-.1-.1v-.1l-.1.1h-.1l-.2.1H-83.3l-.1.1-.1-.1h-.5l-.2-.1h-.4l-.1.1-.1-.1h-.1v.1H-85.2l-.1-.1h-.1v.1h-.3l-.1-.1H-86.1v-.1l-.1-.1-.1-.1h-.1v-.1l-.1-.1v.1h-.1l-.1-.1v-.1h-.1v-.1l-.1-.1h-.2v-.1h-.1v-.2h-.1l-.1-.1v-.1h-.1l-.2-.3h-.3l-.1-.1v-.1H-88.4v.1h-.1l-.3.2.1.1v.1h-.1l.1.1-.1.1v.2l-.1.1H-89.2l.1.1.1.1v.1l.1.1-.1.1v.2h.1v.2l.1.1h-.3l-.5.2h-.2v-.2l-.1-.1v.1h-.1v.1l-.1.1h-.3l-.1-.3v-.1h-.2l-.2-.1v-.1h-.2l-.1.1h-.1l-.1.1.1.1h-.1l-.1.1h-.1v.1h-.2v.1h-.1v.1h.2l.1.1h.2l.1.1.1.1h.1v-.1h.2v.1l.1.1V796h.1l.1.1-.1.1h.1-.1v.1h-.1l-.1.1.1.1-.1.1v.1h-.1v.1h-.1l-.1.1-.1.1h-.1v-.1l-.1.1v-.1l-.1.1h-.1v-.1h-.2v.1l.1.1v.2h-.1v.1h.1v.1h.1v.4l-.1.1v-.1l-.1.1v.2h-.1v.2h.1l.1.1v.1h-.1l.1.1h.1l.1-.1v.1h.1v.1h-.2v.1h-.1v.2l.1.1h.1v.1H-91.9v.1h-.1.2v.1h.1v.1l-.1.1-.1-.1-.1.1h-.1v-.1h-.2l-.1-.1v.1h-.2v-.1l-.1.1v.1l-.1.1-.1.1-.1.1h-.1l-.1.1v.1h-.1l-.1.1v.1h-.1v.1h.5v-.1h.1l.1.1h.2l.1.1.1.1-.1.1v.1h-.1V801.2l.1.1v.2h.2l-.1.1h.2l.1.1v.1l-.1.1v-.1l-.1.1v.1h.1v.1l.1.1h.1v.1l.1.1v.1h.2v.4l.1.1.1.1h.2v.1h.2v.1h.1v.1l.1.1v.1l.1.1v-.1h.1v.1h.1v.1l.1-.1.1.1h.1l.1.1.1.1v.4l.1.1h.1v.1l.2.1v.1h.2l.1.1.1.1h.1l.1.1.1.1h.2v.1h.1V805.6h.1v.1h.1v.1h-.1.1l.1.1v.1h.1v.1l.1.1h-.1v.1h.1l.1.1h-.1l.1.1.1.1v-.1h.1v.1l-.1.1.1.1.1-.1v.1H-87.5l-.1-.1h.1l.1.1h.5l.1.1.1.1.1.1v.2h.1v.1l.1.1.1-.1v.1h.2l.1.1h.1l.1.1.1-.1v.2h.1v.1h.1v-.1h.5l.1-.1.1.2h.2l.1.1h.1l.1-.1v-.1h.1l.1.1h.1v-.1l.2.1.1.1h.1v.1l.1-.1.2.1.1-.1.1-.1v.1h.1v.1l.1.1h.1v-.2h.2v-.2l.1.1h.1l.1-.1.1-.1h.1l.1-.1v-.2h.1v-.1h.1v-.2h.1l-.1-.1h.2l.1.1h.2v.1l.2.1v-.1l.1-.1v-.1l.1.1.1-.1h.1v-.1h.4l.1.1.1-.1-.1-.1.1-.1.1-.1.1.1h.1l-.1-.3.2-.2h.2v.3h.3l.1-.1.1.1h.2v-.2l.3-.2.1.1.2-.1.2-.2v-.1h.1l.1-.1.1-.1-.1-.1.1-.1v.1l.1-.1.1-.1v-.1l.2.1h.1l.1-.1H-76.8v.1h.1l.1.1v.1h.2l.1.1.1-.1v-.1H-75.9l.1-.2h.4v.1l.1.1v.1l.1-.1v.1-.1l.2-.1.1.1h.1v.1l.1-.1h.2v.1l.1.1h.2v-.1l.1-.1h.1l.1-.1h.1v.1l.1-.1.1.1H-73.3l.1-.1.1-.1h-.1l.1-.1v.1h.1l.2.1.1.1h.1v.1h.1l.1-.1h.1l.1-.1h.1V805h.2l-.1-.3.1-.1v-.1l.1.1v-.1l.4-.1v.1l.2.1v-.1h.1l.1.1H-70.7l.1.1h.1l.1-.1h.1V804.3h.2v.1l.1-.1v-.2l.1-.1V803.7l.1-.1H-69.5v-.1l.1-.1v-.2h-.1l-.1-.1v-.4h.1l.1-.2V802.2l.1-.1h.2l.1.1v-.1h.1v-.1l.1-.1-.1-.1v-.1H-68.6l.1-.1v-.1l.1-.1h-.1v-.1h-.1v-.2l.1-.2v-.2h.1l.1-.1h.2V800.3l-.1-.1.1-.1.1-.1h.1v-.1h.1v-.4h-.1v-.2h.1l.1-.1v-.1l.1-.1.1-.1h.2V798.6h.1v-.1l.1-.1h.1v-.2l-.1-.1v-.1l.1-.1.1-.1v-.1h-.1l.1-.1v-.1l.1-.1v-.1l.1-.1v-.1h.2v-.1l.1.1h.1v-.5l-.1-.1v-.4l.2-.1v.1l.1-.1-.1-.1h.1l.1-.1.1-.1v-.1h.2v-.1h.1v-.2l.1-.1v-.2l.1-.1h.1v-.2h.1v-.1h.2v-.1h.1l.1.1.1-.1v.1h.1v-.1l.1-.1v-.2h.1v-.1h.1l.3.2h.5v-.1h.1v-.1h.1v-.1l.1-.1h.1l.1-.1v-.1h-.1v-.2h.2l.1-.1h.1l.1-.2.1-.1" class="st1"/>
  <path d="M-62.6 793v-.1h-.2v-.1l.1-.1.1-.1v-.2h-.1v-.1h-.1v-.1h-.1v-.2l-.1.1v-.1h-.1v.1l-.1-.1h-.1v.1h-.1l-.1.1h-.4V791.9l-.1-.1v-.1h-.1v-.1h.1l-.1-.1h-.1l-.1-.1v-.1h-.1v-.1h-.1l-.1.1-.1-.1h-.1v.1h-.2v-.1l-.1-.1v-.2l-.1-.1v-.2h-.1v-.1h-.2v-.1h-.1l.1-.1v-.1h-.2v-.1h-.1v.1h-.2v.1h-.1v.1h-.5l-.1.1-.1-.1-.1.1h-.1v.1l-.1-.1-.1.1h-.2v.1h-.1v.1l-.1-.1H-67.9l-.1-.1v-.1l-.2-.1v-.2l-.1-.1-.1-.2v-.2h-.1v-.1h-.1v.1h-.1v-.1h-.1v-.1h-.1v-.1l-.1-.1-.2-.1h-.1v.2h-.1v-.1h-.1l-.2.1h-.1v.1l-.1.1h-.1l-.1-.1h-.1l-.2.1h-.1v.1h-.1v.1h-.1v-.1l-.1-.1H-71.1l-.1.1-.2-.1-.1-.1-.1-.1-.2.1v-.1l-.2-.1h-.2l-.2.1H-72.7l-.1.1h-.2l-.1.1H-73.4V789.9l-.1.1-.1.1h.1l-.1.1h-.1v.1l-.1.1V790.7l-.1.1v.1h-.1v.2l-.1.1-.1.1-.1.1h-.2l-.1-.1v.1h-.1v.1H-75v.1h-.1.1v.1h-.1l-.1.1v.1h-.1v.1h-.1v.1h-.1v-.1h-.1l-.1.1-.1.1h-.1v.1h-.2l.1-.1h-.1v-.1l-.2-.1v.1h-.1l-.1.1h-.1v-.2h.1l-.1-.1-.1-.1h-.2v.1h-.1v-.1h-.1v-.2H-77.4v.1h-.1l-.1.1h-.2v.1l-.1.1v.1l.1.1h-.1V792.5h-.1v.1h-.1v-.1h-.1l-.1.1-.1.1v-.1h-.4v.1h-.2v.1h-.4l-.1-.1H-79.8l-.1.1h-.1l-.1-.1v.1h-.1v.1l-.1-.1h-.2l-.1.1v-.1l-.1.1h-.2v.1l-.1.1v.2h-.2l-.1.1h.1v.4l-.1.1h.1v.2h.2v.2h.1l.1.1h-.4l-.1.1-.1.1h-.1l-.1.1-.2.1h-.6v.1h-.1l-.1-.1v-.1l-.1.1h-.1l-.2.1H-83.3l-.1.1-.1-.1h-.5l-.2-.1h-.4l-.1.1-.1-.1h-.1v.1H-85.2l-.1-.1h-.1v.1h-.3l-.1-.1H-86.1v-.1l-.1-.1-.1-.1h-.1v-.1l-.1-.1v.1h-.1l-.1-.1v-.1h-.1v-.1l-.1-.1h-.2v-.1h-.1v-.2h-.1l-.1-.1v-.1h-.1l-.2-.3h-.3l-.1-.1v-.1H-88.4v.1h-.1l-.3.2.1.1v.1h-.1l.1.1-.1.1v.2l-.1.1H-89.2l.1.1.1.1v.1l.1.1-.1.1v.2h.1v.2l.1.1h-.3l-.5.2h-.2v-.2l-.1-.1v.1h-.1v.1l-.1.1h-.3l-.1-.3v-.1h-.2l-.2-.1v-.1h-.2l-.1.1h-.1l-.1.1.1.1h-.1l-.1.1h-.1v.1h-.2v.1h-.1v.1h.2l.1.1h.2l.1.1h25.7v-.2l.1-.1v-.2l.1-.1h.1v-.2h.1v-.1h.2v-.1h.1l.1.1.1-.1v.1h.1v-.1l.1-.1v-.2h.1v-.1h.1l.3.2h.5v-.1h.1v-.1h.1v-.1l.1-.1h.1l.1-.1v-.1h-.1v-.2h.2l.1-.1h.1l.1-.2.1-.1-.1-.1" class="st2"/>
  <path d="M-82.8 808h.2v-.2l.1.1h.1l.1-.1.1-.1h.1l.1-.1v-.2h.1v-.1h.1v-.2h.1l-.1-.1h.2l.1.1h.2v.1l.2.1v-.1l.1-.1v-.1l.1.1.1-.1h.1v-.1h.4l.1.1.1-.1-.1-.1.1-.1.1-.1.1.1h.1l-.1-.3.2-.2h.2v.3h.3l.1-.1.1.1h.2v-.2l.3-.2.1.1.2-.1.2-.2v-.1h.1l.1-.1.1-.1-.1-.1.1-.1v.1l.1-.1.1-.1v-.1l.2.1h.1l.1-.1H-76.8v.1h.1l.1.1v.1h.2l.1.1.1-.1v-.1H-75.9l.1-.2h.4v.1l.1.1v.1l.1-.1v.1-.1l.2-.1.1.1h.1v.1l.1-.1h.2v.1l.1.1h.2v-.1l.1-.1h.1l.1-.1h.1v.1l.1-.1.1.1H-73.3l.1-.1.1-.1h-.1l.1-.1v.1h.1l.2.1.1.1h.1v.1h.1l.1-.1h.1l.1-.1h.1V805h.2l-.1-.3.1-.1v-.1l.1.1v-.1l.4-.1v.1l.2.1v-.1h.1l.1.1H-70.7l.1.1h.1l.1-.1h.1V804.3h.2v.1l.1-.1v-.2l.1-.1V803.7l.1-.1H-69.5v-.1l.1-.1v-.2h-.1l-.1-.1v-.4h.1l.1-.2V802.2l.1-.1h.2l.1.1v-.1h.1v-.1l.1-.1v-.1h-23.3l-.1.1v-.1l-.1.1v.1h.1v.1l.1.1h.1v.1l.1.1v.1h.2v.4l.1.1.1.1h.2v.1h.2v.1h.1v.1l.1.1v.1l.1.1v-.1h.1v.1h.1v.1l.1-.1.1.1h.1l.1.1.1.1v.4l.1.1h.1v.1l.2.1v.1h.2l.1.1.1.1h.1l.1.1.1.1h.2v.1h.1V805.6h.1v.1h.1v.1h-.1.1l.1.1v.1h.1v.1l.1.1h-.1v.1h.1l.1.1h-.1l.1.1.1.1v-.1h.1v.1l-.1.1.1.1.1-.1v.1H-87.5l-.1-.1h.1l.1.1h.5l.1.1.1.1.1.1v.2h.1v.1l.1.1.1-.1v.1h.2l.1.1h.1l.1.1.1-.1v.2h.1v.1h.1v-.1h.5l.1-.1.1.2h.2l.1.1h.1l.1-.1v-.1h.1l.1.1h.1v-.1l.2.1.1.1h.1v.1l.1-.1.2.1.1-.1.1-.1v.1h.1v.1l.1.1h.1v-.1" class="st3"/>
</svg>
