<svg viewBox="0 0 480 478" xmlns="http://www.w3.org/2000/svg" fill-rule="evenodd" clip-rule="evenodd" stroke-linecap="round"><path d="M520 703.745v.091c0 112.852-92.863 205.714-205.714 205.714-112.852 0-205.715-92.862-205.715-205.714v-.091c0-112.851 92.863-205.714 205.715-205.714C427.137 498.031 520 590.894 520 703.745z" fill="#fff" fill-rule="nonzero" stroke="#f50a0a" stroke-width="42.7" transform="matrix(1.05727 0 0 1.05033 -92.29 -500.643)"/><path d="M289.098 226.666c-12.429-4.55-21.639-11.041-27.631-19.474-5.992-8.434-8.988-18.531-8.988-30.294 0-17.754 6.381-32.679 19.142-44.774 12.761-12.095 29.738-18.143 50.932-18.143 21.306 0 38.45 6.186 51.433 18.559 12.983 12.373 19.474 27.436 19.474 45.19 0 11.319-2.968 21.167-8.905 29.545-5.937 8.378-14.952 14.841-27.048 19.391 14.981 4.882 26.382 12.761 34.205 23.636 7.823 10.874 11.735 23.857 11.735 38.948 0 20.862-7.379 38.394-22.138 52.598-14.758 14.203-34.177 21.305-58.256 21.305-24.08 0-43.498-7.13-58.257-21.389-14.758-14.259-22.137-32.041-22.137-53.346 0-15.868 4.022-29.156 12.067-39.864 8.045-10.708 19.502-18.004 34.372-21.888zM166.259 358.992h-29.96V168.077c-7.213 6.879-16.673 13.759-28.379 20.639-11.707 6.88-22.221 12.04-31.542 15.48v-28.962c16.756-7.879 31.403-17.422 43.942-28.629 12.539-11.208 21.416-22.082 26.632-32.624h19.307v245.011zm107.192-70.408c0 8.545 2.026 16.812 6.076 24.801 4.05 7.99 10.07 14.176 18.059 18.559 7.99 4.383 16.59 6.575 25.8 6.575 14.314 0 26.132-4.605 35.453-13.816 9.321-9.21 13.982-20.916 13.982-35.12 0-14.425-4.8-26.354-14.398-35.786-9.599-9.432-21.611-14.148-36.036-14.148-14.093 0-25.772 4.66-35.037 13.981-9.266 9.322-13.899 20.973-13.899 34.954zm9.654-112.684c0 11.54 3.718 20.972 11.152 28.296 7.435 7.323 17.089 10.985 28.962 10.985 11.541 0 21-3.634 28.379-10.902 7.38-7.268 11.069-16.173 11.069-26.715 0-10.985-3.8-20.223-11.401-27.713-7.602-7.491-17.061-11.236-28.38-11.236-11.429 0-20.917 3.662-28.462 10.986-7.546 7.324-11.319 16.09-11.319 26.299z" fill-rule="nonzero"/><path fill="#f50a0a" d="M61.003 91.394l31.82-31.82L418.99 385.74l-31.82 31.82z"/></svg>