<svg viewBox="0 0 71 71" xmlns="http://www.w3.org/2000/svg" fill-rule="evenodd" clip-rule="evenodd" stroke-linejoin="round" stroke-miterlimit="2"><path d="M60.105 12.898a58.556 58.556 0 00-14.452-4.483.221.221 0 00-.233.11 40.546 40.546 0 00-1.8 3.697c-5.456-.817-10.886-.817-16.23 0-.485-1.164-1.201-2.587-1.828-3.697a.228.228 0 00-.233-.11 58.367 58.367 0 00-14.451 4.483.21.21 0 00-.095.082C1.578 26.73-.944 40.144.293 53.39a.246.246 0 00.093.167c6.073 4.46 11.955 7.167 17.729 8.962a.232.232 0 00.249-.082 42.12 42.12 0 003.627-5.9.226.226 0 00-.123-.312 38.76 38.76 0 01-5.539-2.64.23.23 0 01-.022-.378 31.17 31.17 0 001.1-.862.22.22 0 01.23-.03c11.619 5.304 24.198 5.304 35.68 0a.22.22 0 01.233.027c.356.293.728.586 1.103.865a.23.23 0 01-.02.378 36.358 36.358 0 01-5.54 2.637.227.227 0 00-.121.315 47.113 47.113 0 003.624 5.897.227.227 0 00.249.084c5.801-1.794 11.684-4.502 17.757-8.961a.23.23 0 00.092-.164c1.48-15.315-2.48-28.618-10.497-40.412a.182.182 0 00-.093-.084l.001.001zm-36.38 32.427c-3.497 0-6.38-3.211-6.38-7.156 0-3.944 2.827-7.156 6.38-7.156 3.583 0 6.438 3.24 6.382 7.156 0 3.945-2.827 7.156-6.381 7.156h-.001zm23.593 0c-3.498 0-6.38-3.211-6.38-7.156 0-3.944 2.826-7.156 6.38-7.156 3.582 0 6.437 3.24 6.38 7.156 0 3.945-2.798 7.156-6.38 7.156z" fill="#fff" fill-rule="nonzero"/></svg>