<svg viewBox="0 0 1000 1000" xmlns="http://www.w3.org/2000/svg" fill-rule="evenodd" clip-rule="evenodd" stroke-linejoin="round" stroke-miterlimit="2"><path d="M383.345 784.587l1.397 54.629c1.482 57.949 53.684 109.135 111.711 109.538.23.003.466.003.696.003 58.794 0 113.745-51.297 117.796-110.147l3.542-51.441 38.857 33.892c44.771 39.046 120.565 36.315 162.196-5.848 40.633-41.152 41.659-114.239 2.197-156.41l-36.658-39.174 53.507-3.888c57.741-4.196 108.895-58.222 110.071-115.94l.019-2.223c-.14-58.224-50.76-110.789-108.919-112.784l-56.394-1.935 38.574-41.187c39.519-42.195 38.526-115.318-2.124-156.483-41.499-42.023-117.146-44.883-161.881-6.115l-40.679 35.248-1.706-53.8c-1.851-58.437-54.535-109.279-112.981-109.279-.303 0-.601.001-.902.003-58.456.525-113.172 52.235-117.093 110.662l-3.456 51.495-38.926-33.885c-44.744-38.952-120.49-36.175-162.086 5.944-40.669 41.184-41.646 114.32-2.091 156.515l36.695 39.145-53.508 3.932C103.143 389.32 51.761 444.014 51.241 502.1c-.523 58.71 50.437 111.929 109.056 113.891l56.396 1.884-38.539 41.223c-39.901 42.678-38.291 116.084 3.446 157.086 41.615 40.88 116.684 42.944 160.648 4.416l41.097-36.013zm1.732-399.087c34.032-34.036 72.907-51.26 116.623-51.642 43.694-.399 82.188 16.048 115.459 49.323 33.252 33.255 49.696 71.752 49.317 115.47-.4 43.702-17.604 82.599-51.636 116.635-34.052 34.055-72.928 51.243-116.623 51.642-43.716.382-82.209-16.066-115.461-49.321-33.271-33.274-49.716-71.771-49.316-115.472.38-43.718 17.586-82.58 51.637-116.635z" fill="#fff" fill-opacity=".5" fill-rule="nonzero"/><path d="M383.345 784.587l1.397 54.629c1.482 57.949 53.684 109.135 111.711 109.538.23.003.466.003.696.003 58.794 0 113.745-51.297 117.796-110.147l3.542-51.441 38.857 33.892c44.771 39.046 120.565 36.315 162.196-5.848 40.633-41.152 41.659-114.239 2.197-156.41l-36.658-39.174 53.507-3.888c57.741-4.196 108.895-58.222 110.071-115.94l.019-2.223c-.14-58.224-50.76-110.789-108.919-112.784l-56.394-1.935 38.574-41.187c39.519-42.195 38.526-115.318-2.124-156.483-41.499-42.023-117.146-44.883-161.881-6.115l-40.679 35.248-1.706-53.8c-1.851-58.437-54.535-109.279-112.981-109.279-.303 0-.601.001-.902.003-58.456.525-113.172 52.235-117.093 110.662l-3.456 51.495-38.926-33.885c-44.744-38.952-120.49-36.175-162.086 5.944-40.669 41.184-41.646 114.32-2.091 156.515l36.695 39.145-53.508 3.932C103.143 389.32 51.761 444.014 51.241 502.1c-.523 58.71 50.437 111.929 109.056 113.891l56.396 1.884-38.539 41.223c-39.901 42.678-38.291 116.084 3.446 157.086 41.615 40.88 116.684 42.944 160.648 4.416l41.097-36.013zM497.155 1000c-.353 0-.703 0-1.056-.003-40.641-.282-81.618-17.76-112.424-47.95-20.125-19.722-34.902-43.888-43.028-69.6-62.892 30.296-144.42 19.938-194.952-29.707-29.155-28.639-46.432-69.939-47.4-113.303-.629-28.187 5.67-55.793 17.807-79.869-25.722-8.445-49.802-23.552-69.369-44.002C16.671 584.15-.361 542.626.006 501.642c.63-70.528 50.737-135.581 116.334-158.951-32.139-61.659-22.819-142.477 27.307-193.237 50.912-51.554 134.014-62.6 197.955-31.248C364.36 51.639 429.836.645 501.204.005c41.091-.35 82.6 16.706 114.021 46.839 20.718 19.867 35.939 44.37 44.288 70.515 63.768-30.611 146.204-19.369 196.757 31.822 49.817 50.449 59.324 130.614 27.876 192.131 25.624 8.476 49.607 23.573 69.099 43.978 25.834 27.041 42.034 61.558 45.817 96.756.465 1.96.77 4.121.878 6.496l.06.001c-.003.155-.01.798-.017 1.77 0 .174 0 .349-.003.525l-.071 8.309c-.002.047-.002.095-.002.141l-.075 8.156-.008.523c-.009.971-.014 1.616-.014 1.771h-.061c-.142 2.27-.463 4.339-.93 6.223-7.686 63.927-54.998 120.726-115.416 142.186 32.026 61.623 22.664 142.364-27.406 193.072-50.965 51.616-134.137 62.628-198.113 31.166C634.99 949.342 569.077 1000 497.155 1000" fill="#fff" fill-opacity=".2" fill-rule="nonzero"/><path d="M385.077 385.5c34.032-34.036 72.907-51.26 116.623-51.642 43.694-.399 82.188 16.048 115.459 49.323 33.252 33.255 49.696 71.752 49.317 115.47-.4 43.702-17.604 82.599-51.636 116.635-34.052 34.055-72.928 51.243-116.623 51.642-43.716.382-82.209-16.066-115.461-49.321-33.271-33.274-49.716-71.771-49.316-115.472.38-43.718 17.586-82.58 51.637-116.635" fill="#fff" fill-rule="nonzero"/></svg>