<?xml version="1.0" encoding="UTF-8"?>
<svg version="1.1" xmlns="http://www.w3.org/2000/svg" x="0px" y="0px" viewBox="0 0 130 32" enable-background="new 0 0 130 32" xml:space="preserve"><path d="M11.2,12.2c0-0.1,0-0.2,0-0.3c0-0.1,0-0.2,0-0.2c0-0.1,0.1-0.3,0.3-0.5c0.2-0.2,0.4-0.4,0.6-0.6c0.3-0.2,0.6-0.4,0.9-0.6 s0.7-0.3,1.1-0.4c0,0,0,0,0,0c0,0,0.1,0,0.1,0c0.1,0,0.3,0,0.4,0.1c0.1,0.1,0.2,0.2,0.2,0.4c0,0.1-0.3,0.5-0.7,1.1 c-0.9,1.3-1.7,2.4-2.3,3.4c0,0-0.1,0.1-0.1,0.2c-0.1,0.1-0.1,0.2-0.2,0.2l-3.3,4.4c-0.1,0.1-0.2,0.2-0.3,0.4 c-0.2,0.3-0.3,0.4-0.3,0.5s0.1,0.2,0.3,0.2c0.2,0,0.6,0.1,1.1,0.1c0.6,0,1.2,0,1.7-0.1c0.6-0.1,1.2-0.2,1.7-0.4 c0.3-0.1,0.5-0.1,0.9-0.2c0.3,0,0.6-0.1,0.8-0.1c0.2,0,0.4-0.1,0.8-0.3c0.3-0.1,0.4-0.2,0.6-0.3c0.2,0,0.4-0.1,0.6-0.2 c0.8-0.2,1.3-0.4,1.6-0.6c0.1,0,0.2-0.1,0.4-0.3c0.2-0.2,0.3-0.3,0.5-0.5c0.2-0.2,0.4-0.4,0.5-0.6c0.2-0.2,0.2-0.3,0.3-0.4 c0.1-0.3,0.2-0.6,0.3-0.9c0.1-0.4,0.1-0.7,0.1-1.1c0-0.3,0-0.5,0-0.7c0-0.2-0.1-0.3-0.3-0.5c-0.1-0.1-0.1-0.2-0.1-0.2 c0-0.2,0-0.4-0.1-0.7c0,0,0-0.1,0-0.2c0-0.2-0.2-0.4-0.4-0.8c-0.2-0.4-0.5-0.8-0.8-1.2c-0.3-0.5-0.6-0.9-0.9-1.2 c-0.3-0.4-0.5-0.6-0.6-0.8c-0.6-0.6-1.2-1.1-2-1.5c-0.8-0.4-1.5-0.7-2.2-0.9c-0.2,0-0.6-0.1-1-0.1c-0.7-0.1-1.3-0.2-1.8-0.2 C8.9,5.6,8.3,5.6,7.7,5.6c-0.2,0-0.3,0.1-0.3,0.1c0,0.1-0.1,0.1-0.2,0.1C6.9,5.8,6.7,5.9,6.6,6C6.4,6.1,6.3,6.3,6.3,6.4 c0,0,0,0.1,0,0.1c0,0.1,0,0.2,0,0.3c0,0.3,0,0.6,0.1,0.9C6.4,8,6.5,8.2,6.7,8.3c0,0,0.1,0.2,0.1,0.5c0,0.3,0,0.5,0,0.6 C6.8,9.5,6.9,9.8,7,10.1c0.1,0.3,0.1,0.6,0.1,0.8c0,0.2,0,0.4-0.1,0.5c0,0.1-0.1,0.2-0.2,0.3S6.6,11.9,6.5,12c-0.2,0-0.3,0-0.3-0.1 c-0.1-0.1-0.2-0.2-0.2-0.3c-0.1-0.2-0.2-0.3-0.3-0.4c-0.4-0.4-0.7-0.7-0.9-1c-0.1-0.3-0.2-0.6-0.3-1c0-0.1,0-0.2,0-0.3 c0-0.1,0-0.3,0-0.6c0-0.3,0-0.6,0-1c0-0.4,0-0.8,0-1.1c0-0.3,0.1-0.5,0.1-0.6C4.7,5.3,5,5,5.5,4.7C6,4.4,6.5,4.2,7,4 c0,0,0.1-0.1,0.2-0.1c0.1-0.1,0.3-0.2,0.4-0.2c0,0,0,0,0.1,0c0,0,0.1,0,0.1,0c0.1,0,0.4,0,0.7-0.1c0.5-0.1,1-0.1,1.3-0.1 c0.2,0,0.4,0,0.6,0c1.5,0.3,2.9,0.7,4,1.4c1.1,0.6,2.2,1.4,3.3,2.2c0.3,0.2,0.5,0.4,0.6,0.5c0.1,0,0.1,0.1,0.1,0.2 c0,0.1,0.1,0.2,0.2,0.3c0.2,0.2,0.4,0.4,0.7,0.7c0.3,0.3,0.6,0.7,0.9,1c0.3,0.4,0.6,0.7,0.8,1c0.2,0.3,0.4,0.6,0.5,0.7 c0.1,0.2,0.2,0.6,0.3,1.2c0.1,0.6,0.2,1,0.2,1.3c0,0.8,0,1.4-0.1,1.9c-0.1,0.5-0.2,0.9-0.4,1.1c-0.3,0.3-0.6,0.7-1,1 c-0.4,0.3-0.6,0.5-0.8,0.6c-0.5,0.2-0.9,0.5-1.4,0.9c-0.1,0.1-0.2,0.2-0.4,0.3c-0.2,0.1-0.4,0.3-0.6,0.4c-0.2,0.1-0.4,0.3-0.6,0.4 c-0.2,0.1-0.3,0.2-0.4,0.2c-0.1,0-0.3,0.1-0.6,0.1c-0.3,0-0.5,0.1-0.6,0.1c-0.2,0-0.3,0.1-0.4,0.2c-0.1,0.1-0.3,0.2-0.4,0.3 c-0.2,0.1-0.3,0.1-0.4,0.1l-0.5,0c-0.4,0-0.7,0.1-1,0.1c-0.2,0-0.4,0.1-0.6,0.2h-0.1c-0.2,0-0.3,0-0.4,0c-0.1,0-0.4,0-0.7,0 c-0.7,0-1.1,0-1.1,0c-0.8,0-1.5,0-2,0.1c-0.5,0-0.8,0.1-0.9,0.2c-0.3,0.3-0.6,0.6-0.8,0.8c-0.2,0.2-0.4,0.3-0.6,0.3 c-0.3,0-0.5-0.1-0.7-0.2c-0.2-0.2-0.4-0.4-0.4-0.6C4,22.4,4,22.3,4,22.2c0-0.1-0.1-0.1-0.3-0.2c-0.2,0-0.3,0-0.3-0.1 c0,0-0.1-0.1-0.3-0.1c-0.3-0.1-0.5-0.2-0.8-0.3c-0.3-0.1-0.7-0.4-1.2-0.7c-0.7-0.5-1-0.9-1-1.3c0-0.3,0.2-0.6,0.7-0.8 c0.2,0,0.5,0,0.8-0.1c0.2,0,0.4,0,0.5,0c0.2,0,0.3,0,0.4,0.1c0.2,0.2,0.4,0.4,0.7,0.6c0.3,0.3,0.5,0.5,0.8,0.6 c0.2,0.1,0.6,0.2,1,0.3c0,0,0,0,0.1,0c0.1,0,0.1,0,0.2,0c0.2,0,0.4-0.1,0.6-0.3c0.3-0.4,0.8-1,1.5-1.8C8.2,17,9,16,9.6,15.1 c0.6-0.8,1.1-1.7,1.5-2.5C11.1,12.5,11.2,12.3,11.2,12.2z M29.8,31.8c-0.8,0.1-1.6,0.2-2.3,0.2c-0.1,0-0.2,0-0.4,0 c-0.1,0-0.3,0-0.4,0c-0.2,0-0.3,0-0.5-0.1c-0.1-0.1-0.2-0.1-0.4-0.1c-0.1,0-0.3-0.1-0.5-0.2c-0.2-0.1-0.5-0.2-0.8-0.4 c-0.3-0.2-0.6-0.4-0.9-0.6c-0.3-0.2-0.6-0.5-0.8-0.8c-0.1-0.1-0.2-0.3-0.2-0.5c-0.1-0.2-0.1-0.4-0.1-0.6c0-0.2-0.1-0.4-0.1-0.4v-0.1 c0-0.1,0-0.1,0-0.2c0-0.2,0-0.4,0.1-0.8c0-0.4,0.1-0.8,0.2-1.3c0-0.4,0.1-0.7,0.1-0.9c0-0.2,0.1-0.4,0.3-0.7 c0.2-0.3,0.3-0.6,0.6-0.9c0.2-0.3,0.5-0.6,0.7-0.9c0.2-0.3,0.5-0.6,0.7-0.8c0.2-0.2,0.4-0.4,0.7-0.6c0.3-0.2,0.6-0.3,1-0.4l-0.4,0.6 c-0.6,0.8-1,1.5-1.3,2.1c-0.3,0.5-0.5,1.1-0.6,1.6c0,0.2,0,0.5-0.1,0.9c-0.1,0.7-0.1,1.1-0.1,1.3l0.1,0.3c0.2,0.4,0.4,0.7,0.7,1 c0.3,0.3,0.7,0.6,1,0.7c0.2,0.1,0.4,0.2,0.6,0.3c0.2,0.1,0.3,0.2,0.5,0.2s0.3,0.1,0.6,0.1c0.1,0,0.3,0,0.7,0.1 c0.3,0.1,0.6,0.1,0.9,0.2c0.2,0,0.5,0.1,0.7,0.1c0.4,0,0.7-0.1,1-0.2c0.1,0,0.3-0.1,0.6-0.2c0.6-0.2,1.2-0.5,1.8-0.7 c0.5-0.3,1-0.6,1.5-1c0.2-0.2,0.5-0.4,0.8-0.7c0.9-0.7,1.6-1.4,2.2-1.9c0.6-0.5,1.1-1.2,1.5-1.9c0.9-1.3,1.7-2.6,2.2-3.9 c0.6-1.3,1.2-2.9,1.8-4.8c0.2-0.5,0.3-1,0.4-1.2c0.2-0.8,0.3-1.8,0.3-3.2c0-0.8,0-1.5,0.1-1.9c0-0.5-0.2-0.9-0.7-1.3 c-0.5-0.4-1.2-0.7-2.1-0.7c-1-0.1-2.4-0.1-4.4-0.1c-0.6,0-1,0-1.3,0c-0.3,0-0.5,0-0.5-0.1c-0.2,0-0.3-0.2-0.3-0.5 c0-0.2,0.1-0.4,0.2-0.7c0.1-0.2,0.4-0.4,0.6-0.6c0.3-0.2,0.6-0.3,0.8-0.4C36.6,4,36.8,4,37.1,4l0.2,0c0.1,0,0.1,0,0.2,0 c0.6,0,1.3,0.1,2,0.1c0.7,0.1,1.4,0.1,2.1,0.2c0.7,0.1,1.3,0.2,1.9,0.3c0.6,0.1,1,0.2,1.3,0.2c0.2,0,0.4,0.1,0.5,0.2 c0.1,0.1,0.2,0.1,0.2,0.1c0.1,0,0.3,0.2,0.5,0.5c0.2,0.3,0.3,0.5,0.3,0.7c0,0.2,0.1,0.3,0.2,0.5c0.2,0.3,0.2,0.5,0.2,0.7 c0,0,0,0.1,0,0.1c0,0.1,0,0.1,0,0.2c-0.3,2.5-0.9,5.1-1.8,7.7c-0.2,0.5-0.4,1-0.6,1.5c-0.2,0.5-0.3,0.9-0.5,1.3 c-0.2,0.6-0.4,1-0.5,1.3c-0.1,0.3-0.3,0.6-0.5,0.9c-0.2,0.3-0.4,0.7-0.7,1.2c-0.3,0.5-0.8,1.1-1.3,1.9c-0.4,0.7-0.9,1.4-1.5,1.9 c-0.5,0.6-1.2,1.3-2.1,2.1c-0.6,0.5-1,0.9-1.3,1.2c-0.1,0.1-0.2,0.2-0.5,0.3c-0.3,0.2-0.6,0.3-1,0.6c-0.4,0.2-0.8,0.4-1.1,0.6 c-0.3,0.2-0.7,0.4-1.3,0.7c-0.2,0.1-0.3,0.2-0.4,0.2C31.2,31.5,30.6,31.6,29.8,31.8z M56.9,12.2c0-0.1,0-0.2,0-0.3 c0-0.1,0-0.2,0-0.2c0-0.1,0.1-0.3,0.3-0.5c0.2-0.2,0.4-0.4,0.6-0.6c0.3-0.2,0.6-0.4,0.9-0.6s0.7-0.3,1.1-0.4c0,0,0,0,0,0 c0,0,0.1,0,0.1,0c0.1,0,0.3,0,0.4,0.1c0.1,0.1,0.2,0.2,0.2,0.4c0,0.1-0.3,0.5-0.8,1.1c-0.9,1.3-1.7,2.4-2.3,3.4c0,0-0.1,0.1-0.1,0.2 c-0.1,0.1-0.1,0.2-0.2,0.2l-3.3,4.4c-0.1,0.1-0.2,0.2-0.3,0.4c-0.2,0.3-0.3,0.4-0.3,0.5s0.1,0.2,0.3,0.2c0.2,0,0.6,0.1,1.1,0.1 c0.6,0,1.2,0,1.7-0.1c0.6-0.1,1.2-0.2,1.7-0.4c0.3-0.1,0.5-0.1,0.9-0.2s0.6-0.1,0.8-0.1c0.2,0,0.4-0.1,0.8-0.3 c0.3-0.1,0.4-0.2,0.6-0.3c0.2,0,0.4-0.1,0.6-0.2c0.8-0.2,1.3-0.4,1.6-0.6c0.1,0,0.2-0.1,0.4-0.3c0.2-0.2,0.3-0.3,0.5-0.5 c0.2-0.2,0.4-0.4,0.5-0.6c0.2-0.2,0.2-0.3,0.3-0.4c0.1-0.3,0.2-0.6,0.3-0.9c0.1-0.4,0.1-0.7,0.1-1.1c0-0.3,0-0.5,0-0.7 c0-0.2-0.1-0.3-0.3-0.5c-0.1-0.1-0.1-0.2-0.1-0.2c0-0.2,0-0.4-0.1-0.7c0,0,0-0.1,0-0.2c0-0.2-0.2-0.4-0.4-0.8 c-0.2-0.4-0.5-0.8-0.8-1.2C63.3,10,63,9.6,62.8,9.2c-0.3-0.4-0.5-0.6-0.6-0.8c-0.6-0.6-1.2-1.1-2-1.5c-0.8-0.4-1.5-0.7-2.2-0.9 c-0.2,0-0.6-0.1-1-0.1c-0.7-0.1-1.3-0.2-1.8-0.2c-0.5-0.1-1.1-0.1-1.7-0.1c-0.2,0-0.3,0.1-0.3,0.1c0,0.1-0.1,0.1-0.2,0.1 c-0.2,0-0.4,0.1-0.6,0.2C52.1,6.1,52,6.3,52,6.4c0,0,0,0.1,0,0.1c0,0.1,0,0.2,0,0.3c0,0.3,0,0.6,0.1,0.9c0.1,0.3,0.2,0.5,0.3,0.6 c0,0,0.1,0.2,0.1,0.5c0,0.3,0,0.5,0,0.6c0.1,0.1,0.1,0.3,0.2,0.6c0.1,0.3,0.1,0.6,0.1,0.8c0,0.2,0,0.4-0.1,0.5 c0,0.1-0.1,0.2-0.2,0.3s-0.2,0.2-0.3,0.3c-0.2,0-0.3,0-0.3-0.1c-0.1-0.1-0.2-0.2-0.3-0.3c-0.1-0.2-0.2-0.3-0.3-0.4 c-0.4-0.4-0.7-0.7-0.9-1c-0.1-0.3-0.2-0.6-0.3-1c0-0.1,0-0.2,0-0.3c0-0.1,0-0.3,0-0.6c0-0.3,0-0.6,0-1c0-0.4,0-0.8,0-1.1 c0-0.3,0.1-0.5,0.1-0.6c0.2-0.3,0.5-0.6,1-0.9c0.5-0.3,1-0.6,1.6-0.8c0,0,0.1-0.1,0.2-0.1c0.1-0.1,0.3-0.2,0.4-0.2c0,0,0,0,0.1,0 c0,0,0.1,0,0.1,0c0.1,0,0.4,0,0.7-0.1c0.5-0.1,1-0.1,1.3-0.1c0.2,0,0.4,0,0.6,0c1.5,0.3,2.9,0.7,4,1.4c1.1,0.6,2.2,1.4,3.3,2.2 c0.3,0.2,0.5,0.4,0.6,0.5c0.1,0,0.1,0.1,0.1,0.2c0,0.1,0.1,0.2,0.2,0.3c0.2,0.2,0.4,0.4,0.7,0.7c0.3,0.3,0.6,0.7,0.9,1 c0.3,0.4,0.6,0.7,0.8,1c0.2,0.3,0.4,0.6,0.5,0.7c0.1,0.2,0.2,0.6,0.3,1.2c0.1,0.6,0.2,1,0.2,1.3c0,0.8,0,1.4-0.1,1.9 c-0.1,0.5-0.2,0.9-0.4,1.1c-0.3,0.3-0.6,0.7-1,1c-0.4,0.3-0.6,0.5-0.8,0.6c-0.5,0.2-0.9,0.5-1.4,0.9c-0.1,0.1-0.2,0.2-0.4,0.3 c-0.2,0.1-0.4,0.3-0.6,0.4c-0.2,0.1-0.4,0.3-0.6,0.4c-0.2,0.1-0.3,0.2-0.4,0.2c-0.1,0-0.3,0.1-0.6,0.1C61,21,60.8,21,60.6,21 s-0.3,0.1-0.4,0.2c-0.1,0.1-0.3,0.2-0.4,0.3c-0.2,0.1-0.3,0.1-0.4,0.1l-0.5,0c-0.4,0-0.8,0.1-1,0.1c-0.2,0-0.4,0.1-0.6,0.2h-0.1 c-0.2,0-0.3,0-0.4,0s-0.4,0-0.7,0c-0.7,0-1.1,0-1.1,0c-0.8,0-1.5,0-2,0.1c-0.5,0-0.8,0.1-0.9,0.2c-0.3,0.3-0.6,0.6-0.8,0.8 c-0.2,0.2-0.4,0.3-0.6,0.3c-0.3,0-0.5-0.1-0.7-0.2c-0.2-0.2-0.4-0.4-0.4-0.6c0.1-0.1,0.1-0.2,0.1-0.2c0-0.1-0.1-0.1-0.3-0.2 c-0.2,0-0.3,0-0.3-0.1c0,0-0.1-0.1-0.3-0.1c-0.3-0.1-0.5-0.2-0.8-0.3c-0.3-0.1-0.7-0.4-1.2-0.7c-0.7-0.5-1-0.9-1-1.3 c0-0.3,0.2-0.6,0.7-0.8c0.2,0,0.5,0,0.8-0.1c0.2,0,0.4,0,0.5,0c0.2,0,0.3,0,0.4,0.1c0.2,0.2,0.4,0.4,0.7,0.6 c0.3,0.3,0.5,0.5,0.8,0.6c0.2,0.1,0.6,0.2,1,0.3c0,0,0,0,0.1,0c0.1,0,0.1,0,0.2,0c0.2,0,0.4-0.1,0.6-0.3c0.3-0.4,0.8-1,1.5-1.8 c1-1.2,1.8-2.2,2.4-3.1c0.6-0.8,1.1-1.7,1.5-2.5C56.8,12.5,56.8,12.3,56.9,12.2z M76.2,11.5c0.4-0.2,0.7-0.2,1-0.2 c0.2,0,0.4,0.1,0.5,0.2c0.3,0.2,0.5,0.7,0.5,1.5c0,0.2,0,0.4,0,0.6v0.1c0,0.1,0,0.2,0.1,0.3c0,0.1,0.1,0.1,0.2,0.1 c0.1,0,0.3,0,0.5-0.1c0,0.2-0.1,0.6-0.1,1.1c0,0.6-0.1,1-0.2,1.2c-0.2,0.5-0.5,1.2-1.2,2.1c-0.4,0.6-0.7,1.1-0.9,1.4 c-0.2,0.4-0.3,0.8-0.4,1.2c0.1-0.1,0.3-0.2,0.6-0.3c0.3-0.2,0.6-0.3,0.7-0.3c0,0,0,0,0,0l0,0c0.1,0,0.1,0.1,0.1,0.2 c0,0.2-0.1,0.4-0.2,0.7c-0.2,0.1-0.4,0.3-0.6,0.5c-0.2,0.2-0.4,0.4-0.6,0.5c0,0,0,0-0.1,0c-0.3,0.1-0.4,0.2-0.5,0.3 c0,0.1-0.1,0.1-0.4,0.1s-0.5,0-0.7-0.1c-0.2-0.1-0.4-0.2-0.4-0.4c0-0.1,0-0.2,0.1-0.4c0.1-0.1,0.2-0.4,0.3-0.7 c0.1-0.3,0.3-0.7,0.4-1.1c0.2-0.6,0.4-1,0.4-1.1l0,0c0.1-0.2,0.1-0.4,0.1-0.5l0-0.1c0,0,0-0.1,0-0.2c0,0.1-0.2,0.3-0.3,0.4 c-0.2,0.1-0.4,0.3-0.6,0.4c-0.2,0.1-0.4,0.2-0.6,0.3c-0.2,0.1-0.3,0.1-0.4,0.1c-0.2,0-0.4,0.1-0.7,0.4c-0.3,0.2-0.6,0.5-0.9,0.9 c0,0-0.1,0.1-0.1,0.1c-0.1,0.1-0.2,0.2-0.3,0.2c-0.1,0-0.3,0.1-0.6,0.3c-0.3,0.2-0.6,0.4-0.9,0.7c-0.2,0.2-0.4,0.3-0.7,0.5 c-0.2,0.1-0.4,0.2-0.5,0.2c-0.2,0-0.4,0-0.6,0.1c-0.3,0.1-0.5,0.2-0.7,0.3c0,0-0.1,0-0.1,0c0,0-0.1,0-0.1,0c-0.2,0-0.3-0.1-0.4-0.2 c-0.1-0.1-0.1-0.3-0.1-0.5v0c0-0.3,0-0.5,0.1-0.7c0-0.2,0.2-0.3,0.4-0.6l3.3-4.6c0.2-0.2,0.4-0.5,0.7-0.9c0.3-0.3,0.7-0.7,1.1-1.1 c0.4-0.4,0.9-0.8,1.3-1.2c0.4-0.4,0.8-0.7,1.2-1C75.5,11.9,75.8,11.7,76.2,11.5z M68.9,20.7c-0.1,0.1-0.1,0.2-0.1,0.3 c0,0,0,0.1,0.1,0.1c0.1,0,0.1,0,0.1,0c0.1,0,0.1,0,0.2,0c0.1,0,0.1,0,0.2,0c0.1,0,0.3,0,0.4-0.1c0.1,0,0.2-0.1,0.4-0.2 c0.2-0.1,0.5-0.3,0.8-0.6c0.5-0.3,0.8-0.6,1.1-0.8c0.3-0.2,0.5-0.3,0.6-0.4c0.1,0,0.1-0.1,0.2-0.3c0-0.1,0-0.2,0.1-0.3 c0-0.1,0.1-0.1,0.3-0.1c0.3,0,0.4-0.1,0.5-0.3c0.1-0.1,0.2-0.2,0.3-0.4c0.1-0.1,0.2-0.2,0.3-0.2c0.4-0.3,0.7-0.7,0.9-1.2 c0.2-0.5,0.5-1.2,0.8-2c0-0.1,0.1-0.2,0.1-0.3c0.1-0.2,0.1-0.3,0.1-0.4c0-0.2-0.2-0.4-0.5-0.6c0,0,0,0-0.1,0c0,0-0.1,0-0.1,0 c-0.4,0-1,0.5-2,1.4c-0.8,0.8-1.6,1.7-2.4,2.6c-0.7,1-1.4,1.9-2,3C69.1,20.4,69,20.6,68.9,20.7z M86.7,15.3c0.4-0.5,0.5-0.9,0.5-1.1 c0,0,0,0,0-0.1c0,0,0,0,0-0.1c0-0.1,0-0.2-0.1-0.2c-0.1,0-0.2-0.1-0.4-0.1c0,0-0.1,0-0.1,0c0.1-0.4,0.2-0.8,0.4-1.1 c0.2-0.3,0.3-0.5,0.5-0.6c0.1,0,0.2-0.1,0.4-0.2c0.3-0.2,0.5-0.3,0.8-0.4c0.2-0.1,0.4-0.1,0.6-0.1c0.2,0,0.4,0.1,0.5,0.4 c0.1,0.2,0.2,0.4,0.2,0.6c0,0.3-0.1,0.6-0.3,1c-0.2,0.3-0.5,0.7-0.8,1.2c-0.1,0.1-0.2,0.2-0.2,0.3c-0.1,0.2-0.3,0.5-0.6,0.7 c-0.2,0.3-0.6,0.6-0.9,1.1c-0.5,0.5-0.8,0.9-0.9,1c-0.5,0.5-1,1.1-1.6,1.7c-0.6,0.6-1.2,1.1-1.7,1.6c-0.5,0.4-1,0.8-1.5,1.2 c-0.2,0.2-0.3,0.2-0.3,0.3c-0.2,0.2-0.6,0.3-1.2,0.3c-0.3,0-0.5,0-0.6-0.1c-0.2,0-0.3-0.1-0.3-0.3c-0.1-0.2-0.2-0.5-0.2-0.9 c0-0.3,0.1-0.7,0.2-1.1c0.1-0.4,0.3-0.8,0.6-1.2c0.2-0.2,0.3-0.6,0.5-1c0.2-0.4,0.3-0.8,0.5-1c0.4-0.7,0.7-1.3,0.9-1.9 c0.2-0.6,0.4-1.1,0.5-1.8c0.1-0.4,0.3-0.8,0.6-1.1c0.4-0.3,0.6-0.5,0.8-0.5h0l0,0c0,0,0.1,0,0.1-0.1c0.1-0.1,0.2-0.2,0.3-0.2 c0,0,0,0,0.1,0c0,0,0.1,0,0.1,0c0.2,0.1,0.4,0.2,0.4,0.5c0,0.2-0.1,0.6-0.2,1.1c-0.2,0.7-0.7,1.7-1.4,3.1c-0.5,0.9-0.9,1.7-1.2,2.3 c-0.3,0.6-0.5,1.3-0.6,1.9c0.8-0.4,1.4-0.8,1.9-1.2c0.5-0.4,1.2-1.1,2.1-1.9c0.1-0.1,0.3-0.3,0.5-0.5C85.9,16.4,86.4,15.9,86.7,15.3 z M90,17.7c0.2-0.4,0.4-0.8,0.6-1.2c0.2-0.5,0.4-0.9,0.7-1.4c0.2-0.5,0.4-0.9,0.6-1.4c-0.1,0-0.2-0.1-0.3-0.2 c-0.1-0.1-0.1-0.3-0.1-0.4c0-0.1,0.1-0.2,0.2-0.4c0.1-0.2,0.3-0.3,0.6-0.5c0.3-0.3,0.5-0.5,0.6-0.6c0.2-0.2,0.4-0.3,0.7-0.3l0.1,0 c0,0,0.1,0,0.1,0c0.2,0,0.3,0.1,0.4,0.1c0.1,0.1,0.1,0.2,0.1,0.4c0,0.1,0,0.3-0.1,0.4c-0.1,0.5-0.2,0.9-0.3,1.1 c-0.1,0.2-0.1,0.4-0.2,0.6c-0.1,0.2-0.2,0.4-0.3,0.6c-0.1,0.2-0.3,0.5-0.6,1c-0.2,0.4-0.7,1.1-1.3,2.1c-0.6,1.1-1.2,1.9-1.6,2.6 c-0.4,0.6-0.8,1.2-1.2,1.6c-0.2,0.2-0.4,0.4-0.7,0.6c-0.3,0.2-0.6,0.3-0.8,0.3c-0.1,0-0.1,0-0.1,0c-0.1,0-0.1-0.1-0.1-0.1 c0,0,0.1-0.2,0.2-0.4c0,0,0.1-0.1,0.1-0.2c0.1-0.2,0.3-0.5,0.4-0.7c0.1-0.2,0.4-0.7,0.8-1.4c0.2-0.3,0.3-0.5,0.4-0.8 c0.1-0.2,0.2-0.4,0.3-0.5C89.6,18.3,89.8,18,90,17.7z M97.2,6c0,0.1,0,0.3,0,0.4c-0.1,0.4-0.2,0.7-0.5,1c-0.2,0.3-0.6,0.5-0.9,0.8 c-0.2,0.2-0.3,0.2-0.3,0.2s-0.1-0.1-0.2-0.2C95.1,8,95,7.6,95,7.1c0-0.4,0-0.6,0.1-0.8c0.1-0.2,0.3-0.4,0.6-0.6 c0.2-0.1,0.3-0.2,0.5-0.3c0.2-0.1,0.3-0.1,0.5-0.1c0.1,0,0.2,0,0.3,0.1C97.1,5.5,97.2,5.7,97.2,6z M103.3,12.5 c0.2-0.3,0.3-0.6,0.5-1.1c0.2-0.4,0.4-0.9,0.6-1.4c0.2-0.5,0.4-0.9,0.5-1.2c0.1-0.4,0.2-0.6,0.3-0.8c0.3-0.9,0.6-1.7,0.7-2.3 s0.2-1.2,0.2-1.8c0-0.7-0.1-1.4-0.4-2c-0.2-0.3-0.4-0.5-0.6-0.6c-0.3-0.1-0.6-0.1-1-0.1c-0.3,0-0.5,0.1-0.7,0.2 c-0.2,0.1-0.4,0.3-0.6,0.6c-0.3,0.4-0.5,0.7-0.7,0.8c-0.2,0.2-0.4,0.2-0.7,0.2c-0.1,0-0.3,0-0.4,0c0.2-0.2,0.3-0.4,0.6-0.8 c0.1-0.2,0.2-0.3,0.3-0.4c0.1,0,0.2-0.2,0.4-0.5c0.2-0.2,0.3-0.3,0.4-0.4c0.1-0.1,0.2-0.2,0.3-0.2l0.1-0.1c0.4-0.2,0.7-0.4,0.9-0.5 c0.3-0.1,0.5-0.1,0.8-0.1c0.3,0,0.5,0,0.8,0.1c0.3,0.1,0.6,0.2,1,0.4l0.2,0.1c0.3,0.1,0.5,0.3,0.6,0.6c0.1,0.2,0.2,0.5,0.3,0.8 c0,0,0,0.1,0,0.1c0,0.1,0,0.2,0,0.2c0,0.3,0,0.6-0.1,1.1c-0.1,0.4-0.1,0.9-0.2,1.5c-0.1,0.5-0.2,1-0.3,1.4c-0.1,0.4-0.2,0.7-0.2,0.9 c-0.1,0.2-0.2,0.6-0.4,1c-0.2,0.4-0.4,1.1-0.8,1.9c0,0.1-0.1,0.2-0.1,0.2c-0.2,0.5-0.5,1.1-0.7,1.6c-0.3,0.5-0.5,1-0.7,1.3 c-0.2,0.3-0.5,0.8-0.8,1.3c-0.4,0.5-0.7,1.1-1.1,1.6c-0.4,0.5-0.7,1-1,1.4c-0.3,0.4-0.5,0.7-0.6,0.8c-0.3,0.3-0.5,0.5-0.8,0.7 c-0.2,0.2-0.4,0.4-0.7,0.6c-0.3,0.4-0.7,0.7-0.9,0.9c-0.1,0.1-0.2,0.2-0.5,0.4c-0.2,0.2-0.5,0.4-0.7,0.6c-0.3,0.2-0.5,0.4-0.7,0.5 s-0.4,0.2-0.5,0.3c-0.4,0.2-0.7,0.3-1.1,0.4c-0.4,0.1-0.7,0.1-1,0.1c-0.3,0-0.5-0.1-0.6-0.2C93,22.4,93,22.2,93,21.9 c0-0.2,0-0.3,0.1-0.5c0.3-1.1,0.8-2.2,1.5-3.4c0.7-1.2,1.5-2.4,2.4-3.8c0.7-0.9,1.3-1.6,2-2.1c0.6-0.5,1.2-0.8,1.8-0.9 c0,0,0,0,0.1,0c0,0,0.1,0,0.1,0c0.2,0,0.4,0.1,0.6,0.2c0.2,0.1,0.3,0.3,0.3,0.5c0,0.2,0.1,0.7,0.1,1.3c0,0.1,0,0.2,0,0.2 c0,0.3-0.1,0.5-0.2,0.6c-0.1,0.1-0.2,0.2-0.2,0.2c0,0,0,0.1,0,0.1c0,0,0,0.1,0,0.1c0.1,0.1,0.1,0.1,0.1,0.2c0,0.1,0,0.2-0.1,0.3 c-0.1,0.1-0.1,0.2-0.2,0.3c-0.1,0.2-0.2,0.3-0.3,0.4c-0.2,0.2-0.3,0.3-0.4,0.3c-0.1,0-0.2-0.1-0.2-0.2s-0.1-0.2-0.1-0.3 c0-0.2,0-0.4,0-0.8c0-0.5,0-0.8,0-1.1c0-0.2-0.1-0.3-0.3-0.3c-0.1,0-0.2,0.1-0.3,0.2c0,0.1-0.2,0.2-0.3,0.4 c-0.3,0.3-0.4,0.5-0.5,0.6c-0.1,0.1-0.2,0.2-0.3,0.3c-0.5,0.7-1,1.4-1.3,1.9c-0.3,0.6-0.6,1-0.9,1.4c-0.2,0.4-0.4,0.7-0.5,1 c-0.1,0.3-0.3,0.6-0.4,0.8c-0.1,0.2-0.2,0.5-0.2,0.9c0,0.2,0,0.3,0.1,0.3c0.1,0,0.2,0,0.3-0.1c0.1,0,0.2-0.1,0.4-0.1 c0.3-0.1,0.5-0.2,0.7-0.3c0.7-0.5,1.4-1.2,2.2-2c0.8-0.8,1.5-1.6,2-2.4C102,14.5,102.8,13.3,103.3,12.5z M103,22.6 c0.5-0.9,1.2-1.8,2.1-2.8c0.2-0.2,0.5-0.7,0.9-1.3c0.4-0.7,0.9-1.4,1.3-2.2c0.5-0.8,0.9-1.6,1.3-2.3c0.4-0.7,0.7-1.2,0.8-1.5 c-0.2,0.1-0.4,0.2-0.6,0.2c-0.3,0.1-0.5,0.2-0.7,0.2c-0.3,0.1-0.6,0.2-1,0.4c-0.5,0.2-0.9,0.3-1.2,0.4c-0.3,0.1-0.6,0.2-1,0.2 c0,0-0.2,0-0.3,0c-0.4,0-0.7,0.1-0.8,0.1c-0.1,0-0.2-0.1-0.3-0.2c0,0,0-0.1,0-0.1c0-0.1-0.1-0.1-0.1-0.2c-0.1-0.2-0.2-0.4-0.2-0.5 c-0.1-0.1-0.1-0.3-0.1-0.5c0-0.2,0-0.5,0.1-0.8c0.1-0.3,0.3-0.8,0.5-1.3c0.2-0.5,0.3-0.8,0.5-1.1c0.1-0.3,0.3-0.6,0.6-0.8 c0.3-0.3,0.6-0.6,1-1c0.4-0.4,1.1-1,2-1.8c0.2-0.2,0.4-0.4,0.5-0.5c0.1-0.1,0.2-0.2,0.4-0.2c0.1,0,0.2-0.1,0.2-0.1 c0.2-0.1,0.3-0.2,0.5-0.2c0.2,0,0.3-0.1,0.6-0.1c0,0,0.1,0,0.2,0c0.2,0,0.3,0,0.4,0c0.1,0,0.3-0.1,0.7-0.1c0.5-0.1,0.8-0.1,1-0.2 c0.2-0.1,0.5-0.1,0.9-0.2c0.3,0,0.6,0,0.9-0.1c0.2-0.1,0.4-0.2,0.5-0.2c0.1,0,0.3,0.1,0.4,0.2c0.3,0.1,0.5,0.3,0.6,0.4 c0.1,0.1,0.1,0.3,0.1,0.6c0,0.1,0,0.2,0,0.3c0,0.2,0,0.4,0,0.5c0,0.2-0.2,0.7-0.6,1.3c-0.4,0.6-0.9,1.5-1.6,2.5 c-0.2,0.2-0.4,0.4-0.6,0.6c-0.2,0.2-0.5,0.3-0.9,0.5c0,0.8-0.2,1.6-0.5,2.3c-0.3,0.7-0.9,1.6-1.5,2.7c-0.2,0.3-0.4,0.6-0.5,0.8 c-0.1,0.2-0.3,0.5-0.6,1c-0.3,0.5-0.6,1-0.8,1.3c-0.2,0.3-0.5,0.6-0.7,0.8c-0.4,0.5-0.8,1-1.2,1.5c-0.7,1-1.2,1.6-1.5,2 c-0.2,0.4-0.4,0.8-0.4,1.2c-0.1,0.5-0.1,0.7-0.2,0.9c-0.1,0.1-0.2,0.2-0.4,0.3c-0.1,0.1-0.3,0.1-0.4,0.2c-0.2,0.1-0.4,0.2-0.5,0.2 c-0.3,0-0.4-0.2-0.4-0.5C102.3,24.3,102.6,23.4,103,22.6z M112,9.5c0.1-0.1,0.2-0.3,0.3-0.5c0.1-0.2,0.2-0.3,0.2-0.4 c0.2-0.3,0.4-0.6,0.5-1c0.1-0.3,0.1-0.7,0.1-1.1c0-0.3-0.1-0.6-0.2-0.7c-0.1-0.1-0.3-0.2-0.7-0.4l-0.1,0c-0.2-0.1-0.5-0.1-0.6-0.1 c-0.2,0-0.3,0-0.4,0.1c0,0,0.1,0.1,0.1,0.2c0.1,0.2,0.2,0.3,0.2,0.4c0,0,0,0,0,0l0,0.1c-0.1,0.2-0.3,0.3-0.7,0.5 c-0.4,0.2-0.7,0.3-1,0.3c-0.1,0-0.2,0-0.2-0.1c0-0.4-0.1-0.6-0.4-0.6c-0.1,0-0.2,0.1-0.4,0.2c-0.2,0.1-0.4,0.3-0.7,0.4 c-0.2,0.2-0.4,0.3-0.5,0.4c-0.1,0.1-0.3,0.2-0.4,0.4c-0.8,1-1.5,1.8-1.8,2.4c-0.4,0.6-0.6,1.1-0.6,1.4c0,0.3,0.1,0.5,0.4,0.7 c0.3,0.2,0.7,0.2,1,0.2c0.4,0,0.8-0.1,1.4-0.4c0.5-0.2,0.8-0.4,1.1-0.5c0.3-0.1,0.5-0.2,0.9-0.4c0.2-0.1,0.4-0.2,0.5-0.2 c0.1-0.1,0.2-0.1,0.3-0.2c0.1,0,0.1-0.1,0.3-0.2c0.1-0.1,0.2-0.2,0.3-0.3c0.1-0.1,0.3-0.2,0.5-0.2C111.7,9.7,111.9,9.6,112,9.5z  M114.2,20.7c-0.6-0.5-1-1.1-1.2-1.6c0-0.1-0.1-0.3-0.1-0.4c0-0.5,0.2-1.1,0.7-1.7c0.2-0.2,0.4-0.5,0.6-0.7c0.2-0.2,0.5-0.4,0.7-0.5 c0.2,0,0.3-0.1,0.5-0.2c0.1-0.1,0.3-0.2,0.5-0.4c0.3-0.2,0.5-0.4,0.7-0.5c0.1,0,0.4-0.2,0.9-0.5c0.5-0.3,0.8-0.5,1.1-0.6 c0.3-0.2,0.6-0.3,0.9-0.4c-0.7-1.3-1.1-2.4-1.1-3.4c0-0.7,0.2-1.3,0.5-1.9c1.1-1.8,3.1-3,6-3.7c0.6-0.1,1.3-0.2,2.1-0.2 c0.6,0,1.2,0,1.6,0.1c0.5,0.1,0.8,0.2,1,0.4c0.2,0.2,0.4,0.5,0.4,0.8c0,0.4-0.2,0.9-0.6,1.6c-0.3,0.6-0.8,1.3-1.5,2.1 c-0.7,0.8-1.4,1.5-2.3,2.1c-0.1,0.1-0.2,0.1-0.3,0.2c-0.1,0.1-0.2,0.1-0.3,0.1c-0.2,0.1-0.5,0.2-0.7,0.4c-0.1,0.1-0.3,0.2-0.4,0.3 c-0.7,0.5-1.4,0.9-1.9,1.1l0.2,0.1c1,0.8,1.7,1.4,2.2,1.7c0.1,0,0.1,0.1,0.2,0.2c0.1,0.2,0.2,0.3,0.4,0.3c0.3,0.1,0.6,0.2,1,0.4 c0.4,0.2,0.8,0.5,1.1,0.8c0.4,0.3,0.7,0.6,0.9,0.9c0.2,0.3,0.4,0.6,0.4,0.9c0,0.8-0.1,1.4-0.3,1.8c-0.2,0.4-0.7,0.7-1.5,0.9 c-0.2,0-0.3,0.1-0.5,0.2c-0.1,0.1-0.2,0.2-0.3,0.2c-0.1,0.1-0.3,0.1-0.5,0.1c-0.4,0.1-0.9,0.2-1.5,0.3c-1.3,0.3-2.3,0.4-2.9,0.4 c-1,0-1.7,0-2.3,0c-0.6,0-1-0.1-1.4-0.1c-0.3,0-0.6-0.1-0.8-0.2c-0.2-0.1-0.4-0.2-0.7-0.3C115.4,21.6,114.7,21.2,114.2,20.7z  M126.2,20.1c0.2,0,0.3-0.1,0.4-0.1c0.1-0.1,0.1-0.2,0.1-0.4c0-0.4-0.2-0.8-0.5-1.2c-0.4-0.3-1.1-0.8-2.1-1.5 c-0.1-0.1-0.3-0.2-0.6-0.4c-0.1,0-0.1-0.1-0.1-0.1c-0.5-0.3-0.8-0.5-0.9-0.6c-0.2-0.1-0.3-0.3-0.5-0.4c-0.2-0.1-0.4-0.3-0.6-0.5 c-0.2-0.2-0.5-0.4-0.8-0.7c-0.4,0.2-0.8,0.4-1.3,0.6c-0.5,0.3-1.1,0.6-1.7,0.9c-0.6,0.3-1.1,0.7-1.5,1.1c-0.4,0.4-0.7,0.7-0.8,1 c0,0,0,0.1-0.1,0.1c0,0.1-0.1,0.2-0.1,0.2c0,0.1,0.1,0.3,0.2,0.6c0.4,0.5,0.9,0.9,1.3,1.2c0.5,0.3,0.9,0.5,1.4,0.7 c0.2,0.1,0.3,0.1,0.4,0.2c0.2,0.1,0.4,0.2,0.5,0.2c0.2,0,0.3,0.1,0.5,0.1c1.4,0,2.5,0,3.5-0.1c0.9-0.1,1.8-0.3,2.7-0.7 C125.8,20.2,126,20.1,126.2,20.1z M125.5,9.6c0.4-0.3,0.8-0.6,1.1-1c0.3-0.3,0.5-0.6,0.7-0.9c0.2-0.3,0.3-0.5,0.3-0.7l0,0 c0,0,0,0,0,0c-0.1-0.4-0.4-0.7-0.7-0.8c-0.3-0.1-0.8-0.2-1.4-0.2c-0.2,0-0.3,0-0.4,0c-0.8,0-1.6,0.2-2.3,0.5s-1.2,0.7-1.6,1.3 c-0.5,0.8-0.8,1.5-0.8,2.2c0,0.7,0.3,1.4,0.8,2.2c0.2-0.1,0.4-0.1,0.6-0.2c0.1-0.1,0.3-0.1,0.4-0.1c0.3-0.1,0.5-0.2,0.7-0.3 c0.2-0.1,0.4-0.3,0.6-0.5c0.3-0.3,0.6-0.5,0.8-0.6C124.7,10.1,125.1,9.9,125.5,9.6z" fill="#fff"/></svg>