<svg viewBox="0 0 32 32" xmlns="http://www.w3.org/2000/svg" fill-rule="evenodd" clip-rule="evenodd" stroke-linejoin="round" stroke-miterlimit="2"><path d="M22.427 6.844L22.083 9.5l3.245.958.042 2.865 2.974.057-.073 3.005 2.891-.188c.005-1.01.068-6.724.839-9.354l-9.574.001z M27.188 17.422l.068-2.995-2.938-.057-.047-3.229-3.37-1.151.453-3.146H8.781C3.687 6.844 0 11.183 0 15.933v9.224h5.49a6.493 6.493 0 01-.031-1.005c.198-4.891 5.599-5.729 9.656-5.609v-1.406c-.068-1.135-.99-2.141-3.656-2.141-1.776 0-3.885.229-5.25.724l.359-3.182c1.307-.365 2.776-.724 5.938-.724 6.099 0 6.771 2.703 6.724 5.844l-.031 7.5h3.307v-.005l.125.005c4.406 0 8.031-3.589 8.484-7.891l-3.927.155zm-12.047 6.896c.073-.281 0-1.203 0-1.526l-.063-1.948c-2.698-.115-5.604.427-5.604 2.911 0 .542.229 1.026.568 1.401h4.417c.333-.188.578-.448.682-.839v.001z" fill="#000" fill-rule="nonzero"/></svg>
