<svg xmlns="http://www.w3.org/2000/svg" viewBox="0 0 1000 1000"><path fill="#fff" d="M131.497 337.706c31.861 78.452 47.007 130.731 32.99 180.632-12.788 45.531-57.873 81.13-120.655 54.03 11.734 79.158 138.9 169.44 265.132 95.149-15.402 34.788-33.651 44.104-58.67 59.609 109.874 18.28 240.46-16.733 327.039-89.364 85.132-71.417 153.308-189.408 150.732-287.354-.017-.614-1.773 1.367-2.616 1.613-42.964 11.629-50.984-17.612-48.001-43.89-88.438 15.992-145.157-82.582-242.868-54.348 24.483-19.73 56.853-19.666 84.992-25.657-91.238-57.045-198.005-53.182-254.44 30.468 3.613-17.708 12.73-35.245 20.312-51.85-64.952 23.01-110.982 58.779-153.947 130.962z"/><path fill="#fff" d="M321.793 536.02c61.106-90.625 156.955-112.686 228.782-100.493-116.417-95.334-233.909-26.133-228.782 100.493zM70.56 99.836c-11.607 103.119 31.76 196.052 73.742 312.813C191.33 543.439 89.456 603.23 43.333 538.225S-16.339 258.001 70.56 99.836z"/><path fill="#fff" d="M126.151 320.066S41.694 142.6 112.253 10.034c12.781 103.163 41.401 176.374 85.526 228.248-34.101 31.125-51.147 53.356-71.628 81.784zM54.523 683.553c36.454 189.97 245.77 300.872 372.04 295.065-11.048-9.7-22.095-18.616-33.142-31.003 95.291 43.85 187.428 17.122 251.233-12.829-16.164-4.604-32.272-9.38-47.04-18.174 21.352-4.41 43.672-15.588 59.869-33.142-52.566-1.477-102.816-10.573-151.863-54.927 57.576-28.86 90.003-66.925 102.697-97.767-13.159 6.02-27.476 9.316-40.637 10.507 12.007-23.538 20.065-48.835 23.52-78.043-232.602 178.145-441.595 75.628-536.677 20.313z"/><path fill="#fff" d="M611.513 653.886c-3.466 21.491-9.333 46.627-17.472 65.294 25.75-12.727 37.33-30.294 47.406-48.456 0 0-10.69 113.322-106.908 158.224 0 0 57.784 50.56 163.623 32.385-12.482 20.32-26.396 37.375-64.404 55.584 57.955 10.977 153.117-24.053 185.599-80.951-28.742 9.15-48.988 9.803-69.933 11.156 160.718-63.788 92.562-249.907 248.026-342.105-61.514-30.693-156.706-52.064-253.372 42.763 9.435-13.824 22.375-34.745 43.833-56.661-72.65 21.205-114.213 112.974-176.398 162.767zM676.955 308.216c-2.213 13.698-3.969 34.942 1.89 51.492 15.963 2.132 36.687-1.007 49.243-8.421-.266-23.09-4.559-41.01-10.828-57.597-12.902 6.397-22.274 10.896-40.305 14.526z"/></svg>