<svg viewBox="0 0 310 310" xmlns="http://www.w3.org/2000/svg" xml:space="preserve" style="fill-rule:evenodd;clip-rule:evenodd"><path d="M155 300.891c83.044 0 150.846-65.055 150.846-145.891C305.846 74.165 238.044 9.109 155 9.109 71.957 9.109 4.154 74.165 4.154 155c0 80.836 67.803 145.891 150.846 145.891Z" style="fill:#ff90e8;fill-rule:nonzero;stroke:#000;stroke-width:1.56px"/><path d="M143.654 228.603c-42.217 0-67.05-34.11-67.05-76.54 0-44.095 27.316-79.869 79.465-79.869 53.806 0 72.016 36.607 72.844 57.405h-38.905c-.827-11.647-10.761-29.118-34.766-29.118-25.66 0-42.216 22.463-42.216 49.918s16.556 49.917 42.216 49.917c23.178 0 33.111-18.303 37.25-36.605h-37.25v-14.976h78.162v76.54h-34.29v-48.254c-2.484 17.472-13.245 51.582-55.46 51.582Z" style="fill-rule:nonzero"/></svg>