<svg viewBox="0 0 397 397" version="1.1" xmlns="http://www.w3.org/2000/svg" xml:space="preserve" style="fill-rule:evenodd;clip-rule:evenodd;stroke-linejoin:round;stroke-miterlimit:1.41421;"><path d="M397,198.5c0,109.628 -88.87,198.5 -198.5,198.5c-109.629,0 -198.5,-88.872 -198.5,-198.5c0,-109.628 88.871,-198.5 198.5,-198.5c109.63,0 198.5,88.872 198.5,198.5Zm-233.876,129.317c3.848,0 6.947,-3.462 6.947,-7.76l0,-243.113c0,-4.301 -3.099,-7.759 -6.947,-7.76l-46.016,0c-3.847,0.001 -6.947,3.459 -6.947,7.76l0,243.113c0,4.298 3.1,7.76 6.947,7.76l46.016,0Zm21.804,-218.654l0,-29.921c0,-7.365 7.416,-12.847 14.746,-8.539c5.872,3.45 123.247,73.104 133.266,79.06c6.578,3.911 6.465,13.244 0,17.162c-7.215,4.37 -125.037,74.375 -133.57,79.238c-6.246,3.567 -14.442,-0.373 -14.442,-8.487l0,-29.962c0,-28.312 49.003,-36.419 56.213,-40.789c6.469,-3.918 6.579,-13.251 0,-17.162c-10.017,-5.956 -56.213,-12.367 -56.213,-40.6l0,0Z" style="fill:#fff;"/></svg>
