<svg width="13" height="13" viewBox="0 0 13 13" xmlns="http://www.w3.org/2000/svg"><path fill="#FFF" d="M8.698 4.756a2.8 2.8 0 00.631-.85 2.64 2.64 0 00.252-.962 2.524 2.524 0 00-.727-1.94A3.14 3.14 0 007.837.33C7.424.15 6.936.043 6.375.008 5.947-.02 5.539.024 5.151.14S4.4.43 4.061.661c-.339.234-.648.52-.928.857a5.86 5.86 0 00-.731 1.134c-.209.42-.377.87-.505 1.356a7.858 7.858 0 00-.242 1.52 10.582 10.582 0 00.072 2.03c.049.347.118.681.211 1.003.092.321.211.607.358.86.147.25.324.453.53.608.207.156.447.243.722.26.257.017.498-.017.721-.098.224-.082.428-.198.614-.349s.352-.33.498-.537a4.264 4.264 0 00.636-1.389 4.661 4.661 0 00.138-.834l.018-.188c.005-.072.012-.15.022-.237l.026-.26c.02-.204.042-.427.068-.67.53-.048.996-.157 1.398-.33a3.44 3.44 0 001.011-.64zM6.394 4.55l.07-.394.388-1.269a.126.126 0 01.005-.032.276.276 0 00.005-.048.365.365 0 00-.163-.345.493.493 0 00-.168-.076 1.028 1.028 0 00-.185-.029.81.81 0 00-.505.116c-.141.09-.257.208-.35.353s-.168.307-.222.484a4.57 4.57 0 00-.184.953c-.01.128-.016.214-.018.258a1.83 1.83 0 01-.197-.073 3.808 3.808 0 01-.517-.275 1.99 1.99 0 00-.104-.06.219.219 0 00-.092-.028.163.163 0 00-.12.035c-.03.027-.054.063-.072.107s-.03.095-.038.154a4.848 4.848 0 00-.016.177c-.008.114-.003.214.013.3a.527.527 0 00.138.253c.075.083.19.17.343.264s.366.204.636.333l-.015.235c-.009.154-.024.34-.045.56-.02.217-.051.446-.089.685-.039.24-.089.477-.151.713s-.139.446-.231.63a1.413 1.413 0 01-.33.442.605.605 0 01-.448.15.496.496 0 01-.395-.234c-.1-.146-.179-.33-.237-.554s-.097-.472-.116-.745a12.466 12.466 0 01-.009-1.554l.033-.555a7.66 7.66 0 01.137-1.025c.071-.35.168-.688.292-1.014s.272-.63.448-.916c.176-.284.378-.53.606-.737a2.49 2.49 0 01.764-.476c.283-.11.593-.156.93-.135.451.03.822.104 1.113.227s.52.27.687.441c.167.171.28.358.34.558.06.201.083.394.071.581a1.415 1.415 0 01-.149.55 1.477 1.477 0 01-.377.474c-.166.14-.37.258-.614.354a3.176 3.176 0 01-.862.187zm4.844.758c-.055-.078-.122-.14-.199-.187s-.154-.08-.23-.098a.92.92 0 00-.573.047 1.84 1.84 0 00-.553.37 4.035 4.035 0 00-.523.617c-.17.243-.332.505-.486.788s-.299.576-.435.882a22.318 22.318 0 00-.929 2.44 22.698 22.698 0 00-.21.695 6.022 6.022 0 00-.086.43 4.545 4.545 0 00-.052.443c-.009.147-.007.29.006.426s.041.261.083.372.103.206.181.283a.626.626 0 00.303.162c.123.03.239.03.349.002s.212-.075.308-.14c.095-.067.184-.147.266-.243s.157-.197.224-.304.127-.214.179-.323a5.182 5.182 0 00.218-.53c.021-.063.034-.105.039-.126.042-.172.059-.349.054-.528a4.005 4.005 0 00-.043-.495 5.256 5.256 0 00-.109-.514c.158.031.32.053.485.067.142.011.299.013.471.007s.341-.032.508-.077l.27-.798a1.669 1.669 0 01-.418.173 2.087 2.087 0 01-1.079.01c-.022-.005-.041-.013-.055-.022l-.041-.029a.295.295 0 00-.186-.063.678.678 0 00-.111.02l.02-.052c.181-.143.362-.3.544-.47s.359-.347.53-.527.333-.363.486-.55c.152-.186.29-.368.411-.545.122-.177.224-.346.307-.507a1.99 1.99 0 00.171-.44.905.905 0 00.02-.385.72.72 0 00-.115-.28zm-2.76 5.27c-.009.128-.021.251-.036.37s-.032.214-.051.292a6.234 6.234 0 01-.1.361c-.038.125-.082.237-.131.338s-.105.18-.167.238a.216.216 0 01-.208.061c-.024-.006-.045-.027-.062-.063a.538.538 0 01-.017-.21c.005-.107.025-.258.06-.456.034-.198.091-.46.17-.79.011-.047.029-.11.053-.192s.051-.168.08-.26a15.722 15.722 0 01.187-.546 2.07 2.07 0 01.079-.188c.023-.048.04-.07.048-.068.027.006.049.043.065.111.019.07.03.155.037.26.007.104.009.222.008.352a8.481 8.481 0 01-.015.39zm2.167-4.432c-.02.085-.085.201-.195.347s-.247.313-.41.5c-.163.188-.344.39-.543.606s-.398.437-.596.661l.144-.39a6.532 6.532 0 01.525-1.096c.133-.227.303-.486.51-.778.069-.099.137-.17.204-.212s.152-.05.255-.025c.059.014.098.052.118.115s.017.153-.012.272z"/></svg>
