<svg version="1.1" id="icons" xmlns="http://www.w3.org/2000/svg" x="0px" y="0px" viewBox="0 0 64 64" enable-background="new 0 0 64 64" xml:space="preserve"><path id="pm" fill="#FFFFFF" d="M43.9,28.4H20.1v-7.1c2.4-9.5,11.9-9.7,11.9-9.7s9.5,0.1,11.9,9.7V28.4z M32,2.7 c0,0-17.3-0.6-20.9,18.6v13.1c0,0,0.1,1.4,4.1,4.2c3.9,2.8,14.1,10.9,16.8,10.9c2.7,0,12.9-8,16.8-10.9c3.9-2.8,4.1-4.2,4.1-4.2 V21.3C49.3,2.1,32,2.7,32,2.7 M32,52.4c0,0-2.7-0.3-4.8-1.7c-2.1-1.5-16.1-11.5-16.1-11.5V59c0,0,0.1,2.3,2.7,2.3 c2.5,0,18.2,0,18.2,0s15.7,0,18.2,0c2.5,0,2.7-2.3,2.7-2.3V39.2c0,0-14,10-16.1,11.5C34.7,52.2,32,52.4,32,52.4"/></svg>
