<svg viewBox="0 0 826 702" xmlns="http://www.w3.org/2000/svg" fill-rule="evenodd" clip-rule="evenodd"><path d="M713.341 0c61.804 0 112.568 46.261 112.568 110.545 0 9.079.842 20.689-5.836 36.248l-150.89 351.561c-55.66 120.08-178.127 203.01-318.844 203.01C157.223 701.364 0 544.032 0 350.828 0 157.625 157.223.292 350.339.292L713.341 0zM350.339 64.684c158.295 0 285.947 127.719 285.947 286.144S508.634 636.972 350.339 636.972c-158.295 0-285.947-127.719-285.947-286.144S192.044 64.684 350.339 64.684zM247.954 418.161c38.863 0 70.416 31.709 70.416 70.764 0 39.056-31.553 70.764-70.416 70.764-38.864 0-70.417-31.708-70.417-70.764 0-39.055 31.553-70.764 70.417-70.764zm205.246-.014c38.863 0 70.416 31.708 70.416 70.764 0 39.055-31.553 70.764-70.416 70.764-38.864 0-70.416-31.709-70.416-70.764 0-39.056 31.552-70.764 70.416-70.764zM350.63 311.471c21.752 0 39.412 17.66 39.412 39.411 0 21.752-17.66 39.411-39.412 39.411-21.751 0-39.411-17.659-39.411-39.411 0-21.751 17.66-39.411 39.411-39.411zm164.812-89.247c38.864 0 70.416 31.709 70.416 70.764 0 39.056-31.552 70.764-70.416 70.764s-70.416-31.708-70.416-70.764c0-39.055 31.552-70.764 70.416-70.764zm-329.742-.068c38.863 0 70.416 31.708 70.416 70.764 0 39.055-31.553 70.763-70.416 70.763-38.864 0-70.416-31.708-70.416-70.763 0-39.056 31.552-70.764 70.416-70.764zm164.685-107.594c36.672 0 66.444 30.135 66.444 67.252 0 37.118-29.772 67.252-66.444 67.252-36.671 0-66.444-30.134-66.444-67.252 0-37.117 29.773-67.252 66.444-67.252zm347.36-67.984c40.571 0 72.899 32.338 72.899 72.961S738.316 192.5 697.745 192.5s-72.9-32.338-72.9-72.961 32.329-72.961 72.9-72.961z" fill="#fff" stroke="#fff" stroke-width=".85"/></svg>